<svg width="92" height="90" viewBox="0 0 92 90" fill="none" xmlns="http://www.w3.org/2000/svg">
<path d="M16.5644 0.633301H75.7711C84.7473 0.633301 92 7.88604 92 16.8622V73.7711C92 82.7473 84.7473 90 75.7711 90H16.5644C7.58819 90 0.335449 82.7473 0.335449 73.7711V16.8622C0.335449 7.88604 7.58819 0.633301 16.5644 0.633301Z" fill="#C9CED1"/>
<path d="M37.1378 54.0956H22.9196L20.0113 63.1077C19.9395 63.4667 19.6164 63.6821 19.2932 63.6462H12.1123C11.6814 63.6462 11.5737 63.4308 11.6814 62.9641L23.9967 27.7057C24.1044 27.3107 24.2122 26.9876 24.3917 26.5208C24.5353 25.7309 24.6071 24.8692 24.6071 24.0434C24.5712 23.8639 24.7148 23.6485 24.9302 23.6125H34.804C35.0554 23.6125 35.2708 23.7203 35.3067 23.9357L49.2377 62.8922C49.3454 63.3231 49.2377 63.5026 48.8428 63.5026H40.8719C40.6206 63.5385 40.3333 63.359 40.2615 63.0718L37.1378 53.9161V54.0956ZM25.1457 46.5197H34.8399C34.6245 45.7298 34.3014 44.7604 33.9782 43.7551C33.6192 42.7138 33.296 41.6008 32.937 40.4877C32.542 39.3029 32.2189 38.1539 31.8239 36.9691C31.429 35.7842 31.1059 34.6712 30.7827 33.5581C30.4596 32.481 30.2082 31.5116 29.9569 30.5781H29.8851C29.526 32.2297 29.1311 33.8454 28.5925 35.497C28.018 37.3281 27.4436 39.2311 26.8332 41.134C26.3305 43.1088 25.7202 44.904 25.1457 46.5197ZM71.7499 50.6847H59.6501C59.7937 51.8695 60.1886 53.0544 60.8349 54.0956C61.5171 55.1368 62.4865 55.9267 63.6355 56.3935C65.1794 57.0398 66.831 57.3988 68.5185 57.3629C69.847 57.327 71.1754 57.2193 72.5039 56.9321C73.6888 56.7885 74.8377 56.4653 75.9149 56.0704C76.0944 55.9267 76.238 55.9986 76.238 56.3935V62.246C76.238 62.3896 76.2021 62.5691 76.1662 62.7127C76.0944 62.8204 76.0226 62.8922 75.9149 62.9641C74.6941 63.5026 73.4374 63.8976 72.109 64.113C70.3137 64.472 68.5185 64.6157 66.6874 64.5798C63.7791 64.5798 61.3376 64.113 59.3628 63.2513C57.4958 62.4614 55.8442 61.2047 54.5516 59.6249C53.3308 58.1528 52.4691 56.4653 51.9305 54.6342C51.392 52.8389 51.1406 50.9719 51.1406 49.0689C51.1406 47.0224 51.4638 44.9758 52.1101 43.0011C52.7205 41.0981 53.6899 39.3388 54.9824 37.759C56.2391 36.2151 57.8189 34.9943 59.6142 34.1326C61.4094 33.2709 63.5637 32.9478 66.0052 32.9478C68.0158 32.9119 70.0624 33.3068 71.9294 34.1326C73.5093 34.8148 74.8736 35.856 75.9508 37.1845C76.9561 38.4771 77.746 39.9492 78.2487 41.529C78.7513 43.0729 78.9668 44.6168 78.9668 46.1966C78.9668 47.1301 78.9309 47.92 78.895 48.6381C78.8231 49.3562 78.7872 49.8948 78.7513 50.2538C78.7154 50.5051 78.5 50.7565 78.2128 50.7565C77.9973 50.7565 77.5665 50.7924 76.9561 50.8283C76.3457 50.9001 75.6276 50.936 74.73 50.936C73.6529 50.8283 72.7194 50.6847 71.7499 50.6847ZM59.6142 45.0835H67.6568C68.6621 45.0835 69.3802 45.0835 69.847 45.0476C70.1701 45.0117 70.4574 44.9399 70.7087 44.7245V44.3295C70.7087 43.8269 70.6369 43.3601 70.4933 42.9293C69.8111 40.775 67.7645 39.3388 65.5384 39.4106C63.4559 39.3029 61.4453 40.4159 60.4759 42.3189C60.0091 43.2165 59.7578 44.15 59.6142 45.0835Z" fill="white"/>
</svg>
