<svg width="296" height="71" viewBox="0 0 296 71" fill="none" xmlns="http://www.w3.org/2000/svg">
<path d="M45.5537 57.1686L29.4954 19.8999L13.1694 57.1686H0.456543L21.8677 8.05688L54.988 49.5409L58.2666 57.1686H45.5537Z" fill="#C9CED1"/>
<path d="M35.5176 4.97915C33.6441 0.76384 30.031 0.56311 29.4957 0.56311H25.2135H16.0469L50.4385 39.17L35.5176 4.97915Z" fill="#C9CED1"/>
<path d="M61.4111 70.4168V31.2077C61.4111 23.7138 65.7603 19.7661 73.9233 19.7661H86.5023C94.6653 19.7661 99.0144 23.7138 99.0144 31.2077V45.6602C99.0144 53.1541 94.6653 57.1018 86.5023 57.1018H71.5145L74.7931 48.6711H86.5023C88.8441 48.6711 89.7809 47.8682 89.7809 45.6602V31.2077C89.7809 29.0666 88.911 28.1967 86.5023 28.1967H73.9233C71.5814 28.1967 70.6447 28.9997 70.6447 31.2077V70.4168H61.4111Z" fill="#C9CED1"/>
<path d="M116.478 57.1018C108.315 57.1018 103.966 53.1541 103.966 45.6602V19.7661H113.2V45.6602C113.2 47.8013 114.07 48.6711 116.478 48.6711H128.522C130.864 48.6711 131.801 47.8682 131.801 45.794V19.833H141.034V45.794C141.034 53.221 136.685 57.1018 128.522 57.1018H116.478Z" fill="#C9CED1"/>
<path d="M189.208 57.1018C181.045 57.1018 176.696 53.1541 176.696 45.6602V19.7661H185.93V45.6602C185.93 47.8013 186.8 48.6711 189.208 48.6711H201.252C203.661 48.6711 204.531 47.8682 204.531 45.794V19.833H213.764V45.794C213.764 53.221 209.415 57.1018 201.252 57.1018H189.208Z" fill="#C9CED1"/>
<path d="M220.389 57.1015V31.2743C220.389 23.7804 224.738 19.8328 232.901 19.8328H239.123V28.3303H232.901C230.559 28.3303 229.622 29.1332 229.622 31.3412V57.1684L220.389 57.1015Z" fill="#C9CED1"/>
<path d="M170.541 48.6711H164.787C162.378 48.6711 161.508 47.8681 161.508 45.6601V43.519V28.2636H170.541V19.766H161.508V13.6104H159.367C154.148 13.6773 153.011 16.9558 152.743 18.6955V19.766H152.676H145.517L145.45 28.2636H152.609V45.6601C152.609 53.154 156.958 57.1017 165.121 57.1017H173.284L170.541 48.6711Z" fill="#C9CED1"/>
<path d="M255.315 57.1015C247.152 57.1015 242.803 53.1538 242.803 45.6599V31.2743C242.803 23.7804 247.152 19.8328 255.315 19.8328H268.563C276.726 19.8328 281.076 23.8473 281.076 31.2743V31.3412C281.076 38.7682 276.726 42.649 268.563 42.649H253.107L256.185 34.1514H268.563C270.905 34.1514 271.842 33.3485 271.842 31.2743V31.2074C271.842 29.0663 270.972 28.1965 268.563 28.1965H255.315C252.973 28.1965 252.037 29.0663 252.037 31.2074V45.6599C252.037 47.801 252.907 48.6709 255.315 48.6709H275.589L278.065 57.1684L255.315 57.1015Z" fill="#C9CED1"/>
<path d="M288.771 6.6521C284.89 6.6521 281.745 9.79686 281.745 13.6776C281.745 17.5584 284.89 20.7031 288.771 20.7031C292.651 20.7031 295.863 17.6253 295.863 13.7445C295.863 9.86377 292.718 6.6521 288.771 6.6521ZM287.299 19.4988V14.7482H288.168C288.57 14.7482 288.838 14.8151 289.172 15.0158C289.44 15.2165 289.774 15.5511 290.042 16.0864L291.715 18.8966C290.845 19.365 289.841 19.6995 288.838 19.6995C288.235 19.6995 287.767 19.6995 287.299 19.4988ZM287.299 13.6776V10.1983H288.838C289.507 10.1983 289.975 10.3321 290.243 10.6667C290.577 10.9343 290.711 11.3358 290.711 11.8711C290.711 12.4063 290.51 12.8747 290.176 13.2093C289.841 13.5438 289.306 13.6776 288.771 13.6776H287.299ZM292.718 18.2275L291.313 15.9526C291.046 15.4842 290.778 15.0827 290.577 14.882C290.376 14.6813 290.109 14.4805 289.908 14.4136V14.3467C291.313 13.9453 292.049 13.0754 292.049 11.6703C292.049 10.8005 291.782 10.1983 291.246 9.72995C290.711 9.26158 289.975 9.06085 289.038 9.06085H286.027V19.0304C284.154 18.0268 282.816 16.0195 282.816 13.7445C282.816 10.466 285.492 7.78956 288.771 7.78956C292.049 7.78956 294.726 10.466 294.726 13.7445C294.726 15.5511 293.99 17.09 292.718 18.2275Z" fill="#C9CED1"/>
</svg>
