<svg width="15" height="13" viewBox="0 0 15 13" fill="none" xmlns="http://www.w3.org/2000/svg">
<path d="M0.756791 13C0.252589 10.7593 0.000488281 8.81463 0.000488281 7.16585C0.000488281 4.79838 0.546707 3.02277 1.63914 1.83902C2.73158 0.613008 4.32822 0 6.42906 0V2.53659C5.33662 2.53659 4.5383 2.83252 4.0341 3.42439C3.57192 4.01626 3.34082 4.90407 3.34082 6.0878V7.54634H6.49208V13H0.756791ZM9.2652 13C8.76099 10.7593 8.50889 8.81463 8.50889 7.16585C8.50889 4.79838 9.05511 3.02277 10.1475 1.83902C11.24 0.613008 12.8366 0 14.9375 0V2.53659C13.845 2.53659 13.0467 2.83252 12.5425 3.42439C12.0803 4.01626 11.8492 4.90407 11.8492 6.0878V7.54634H15.0005V13H9.2652Z" fill="white"/>
</svg>
