<svg width="377" height="56" viewBox="0 0 377 56" fill="none" xmlns="http://www.w3.org/2000/svg">
<path d="M0 41.8305H12.2522C16.5723 41.8305 19.9718 40.839 22.486 38.8206C25.0002 36.8022 26.275 34.1109 26.275 30.7115C26.275 25.0457 23.0526 21.5046 16.6078 20.1236C20.6092 17.9635 22.6276 14.8473 22.6276 10.8105C22.6276 7.44644 21.4591 4.79061 19.0865 2.87842C16.7494 0.966226 13.2791 0.0101318 8.7111 0.0101318H0V41.8305ZM7.57795 2.70136C15.2621 2.70136 19.1219 5.49884 19.1219 11.0584C19.1219 16.6179 15.333 19.3799 7.7196 19.3799H3.2224V2.70136H7.57795ZM10.4817 22.142C18.7324 22.142 22.8401 25.0103 22.8401 30.7115C22.8401 33.2965 21.9194 35.3503 20.0426 36.873C18.1658 38.4311 15.4746 39.1747 11.8981 39.1747H3.2224V22.142H10.4817ZM30.418 0.0455396H33.3926V41.8659H30.418V0.0455396ZM57.9324 39.5642C57.5075 39.5642 57.2596 39.1039 57.2596 38.1478V20.9734C57.2596 18.6363 56.4451 16.8658 54.8516 15.6264C53.2227 14.387 51.1689 13.785 48.6901 13.785C45.8926 13.785 42.9181 14.7411 39.802 16.7241V19.7341C42.8119 17.3969 45.6094 16.2284 48.1944 16.2284C52.2666 16.2284 54.2851 18.1052 54.2851 21.8587V25.3644C49.1505 25.6123 45.1844 26.6392 42.4224 28.3389C39.6603 30.0741 38.2793 32.4466 38.2793 35.4211C38.2793 37.3687 38.9875 39.033 40.4394 40.3787C41.8912 41.7243 43.6263 42.4325 45.6802 42.4325C48.5131 42.4325 51.4168 41.2994 54.2851 39.0331C54.3913 40.4141 54.6038 41.3348 54.8516 41.7597C55.0995 42.22 55.5953 42.4325 56.2681 42.4325C57.4366 42.4325 59.3134 41.4764 61.8276 39.5642V37.1209C59.8092 38.7498 58.499 39.5642 57.9324 39.5642ZM54.3205 36.4481C51.7355 38.8206 49.1859 40.0246 46.6717 40.0246C45.1136 40.0246 43.8388 39.5642 42.7765 38.7144C41.7496 37.8291 41.2184 36.7313 41.2184 35.4565C41.2184 33.1548 42.4578 31.278 44.9366 29.8262C47.4153 28.3389 50.5315 27.6661 54.3205 27.8078V36.4481ZM76.6648 13.7496C72.7696 13.7496 69.5826 15.1306 67.0684 17.8573C64.5542 20.6193 63.3149 24.1604 63.3149 28.4806C63.3149 32.6237 64.5542 35.9877 67.033 38.5373C69.5118 41.0869 72.7696 42.3617 76.771 42.3617C79.1436 42.3617 81.6578 41.9013 84.4198 40.9452V37.8645C81.8348 38.9268 79.356 39.458 77.0189 39.458C73.7965 39.458 71.2115 38.4311 69.2993 36.3772C67.3871 34.3234 66.431 31.5613 66.431 28.0911C66.431 24.6562 67.3871 21.8941 69.2993 19.7341C71.2115 17.574 73.7257 16.5117 76.8064 16.5117C78.9311 16.5117 81.3036 17.1136 83.9595 18.2468V14.989C81.2328 14.2099 78.7895 13.7496 76.6648 13.7496ZM88.3504 0.0455396H91.2541V41.8659H88.3504V0.0455396ZM106.906 14.2808L91.7145 27.3828L109.101 41.8305H113.138L95.7159 27.3474L110.801 14.2808H106.906Z" fill="#C9CED1"/>
<path d="M113.067 14.2805V41.8303H116.007V22.4959C118.344 18.5652 121.106 16.6176 124.293 16.6176C126.488 16.6176 128.259 17.4321 129.569 19.0964C130.879 20.7607 131.517 23.0978 131.517 26.1432V41.8303H134.491V23.0624C135.837 20.7961 137.111 19.1672 138.386 18.1403C139.626 17.1134 141.113 16.6176 142.813 16.6176C145.079 16.6176 146.849 17.4675 148.089 19.1672C149.328 20.867 149.966 23.2041 149.966 26.1786V41.7948H152.869V24.8684C152.869 21.5044 151.984 18.7777 150.249 16.7593C148.514 14.7054 146.212 13.7139 143.344 13.7139C139.555 13.7139 136.368 15.9094 133.783 20.3358C132.048 15.9448 129.109 13.7139 124.895 13.7139C121.283 13.7139 118.344 15.5199 116.113 19.0964H116.007V14.2451H113.067V14.2805ZM176.913 39.564C176.453 39.564 176.241 39.1036 176.241 38.1475V20.9732C176.241 18.6361 175.426 16.8655 173.833 15.6261C172.204 14.3867 170.185 13.7848 167.671 13.7848C164.874 13.7848 161.899 14.7409 158.783 16.7239V19.7338C161.793 17.3967 164.59 16.2281 167.175 16.2281C171.248 16.2281 173.266 18.1049 173.266 21.8585V25.3641C168.131 25.612 164.165 26.6389 161.403 28.3387C158.641 30.0738 157.26 32.4463 157.26 35.4209C157.26 37.3685 157.969 39.0328 159.42 40.3784C160.872 41.724 162.607 42.4323 164.661 42.4323C167.494 42.4323 170.362 41.2991 173.266 39.0328C173.372 40.4138 173.585 41.3345 173.833 41.7594C174.081 42.2198 174.576 42.4323 175.249 42.4323C176.418 42.4323 178.294 41.4762 180.809 39.564V37.1206C178.79 38.7495 177.48 39.564 176.913 39.564ZM173.301 36.4478C170.716 38.8203 168.167 40.0243 165.653 40.0243C164.095 40.0243 162.784 39.564 161.758 38.7141C160.731 37.8288 160.199 36.7311 160.199 35.4563C160.199 33.1546 161.439 31.2778 163.918 29.8259C166.396 28.3387 169.513 27.6659 173.301 27.8075V36.4478ZM205.278 14.2805H194.229C190.476 14.2805 187.572 15.2012 185.554 17.0072C183.535 18.8485 182.544 21.1857 182.544 24.0894C182.544 26.1078 183.181 27.9846 184.421 29.6489C185.66 31.3132 187.501 32.5172 189.909 33.2254V33.3316C186.227 34.394 184.385 35.8812 184.385 37.8288C184.385 39.741 185.872 41.0512 188.847 41.7594V41.8657C183.5 42.7155 180.809 44.9464 180.809 48.5583C180.809 50.7892 181.836 52.5598 183.925 53.9054C186.014 55.251 188.989 55.9238 192.813 55.9238C196.673 55.9238 199.683 55.2156 201.878 53.7992C204.038 52.3827 205.136 50.3997 205.136 47.921C205.136 45.7963 204.463 44.0966 203.118 42.8218C201.772 41.547 199.152 40.8033 195.256 40.5909C191.361 40.3784 189.059 40.0243 188.316 39.5285C187.572 39.0328 187.183 38.3954 187.183 37.6164C187.183 36.9435 187.466 36.3416 188.068 35.8104C188.634 35.2792 190.086 34.7481 192.353 34.1461C194.619 33.5441 196.46 32.9421 197.806 32.3401C199.152 31.7381 200.355 30.7466 201.347 29.401C202.339 28.0554 202.834 26.2494 202.834 23.9477C202.834 21.3981 201.559 18.9548 199.045 16.653H205.278V14.2805ZM202.339 48.1688C202.339 49.7623 201.489 51.0725 199.824 52.0286C198.16 53.0201 195.894 53.4805 193.025 53.4805C186.758 53.4805 183.642 51.7808 183.642 48.3813C183.642 44.9818 186.97 43.2821 193.592 43.2821C199.435 43.3175 202.339 44.9464 202.339 48.1688ZM200.001 24.0539C200.037 26.0015 199.258 27.9137 197.841 29.2594C196.389 30.7112 194.654 31.4194 192.671 31.4194C190.724 31.4548 188.847 30.6404 187.501 29.224C186.12 27.8075 185.341 25.8953 185.377 23.9123C185.377 21.8939 186.085 20.1941 187.466 18.8131C188.847 17.3967 190.582 16.7239 192.601 16.7239C194.654 16.7239 196.389 17.4321 197.841 18.8839C199.293 20.3004 200.001 22.0355 200.001 24.0539ZM208.606 0.0452881H211.581V5.03824H208.606V0.0452881ZM208.606 14.2805H211.581V41.8303H208.606V14.2805ZM230.242 13.7493C226.347 13.7493 223.16 15.1304 220.646 17.857C218.132 20.6191 216.892 24.1602 216.892 28.4803C216.892 32.6234 218.132 35.9875 220.611 38.537C223.089 41.0866 226.347 42.3614 230.349 42.3614C232.721 42.3614 235.271 41.9011 237.997 40.945V37.8642C235.412 38.9266 232.934 39.4577 230.597 39.4577C227.374 39.4577 224.789 38.4308 222.877 36.377C220.965 34.3231 220.009 31.5611 220.009 28.0908C220.009 24.6559 220.965 21.8939 222.877 19.7338C224.789 17.5737 227.303 16.5114 230.384 16.5114C232.509 16.5114 234.881 17.1134 237.537 18.2465V14.9887C234.81 14.2097 232.367 13.7493 230.242 13.7493Z" fill="#C9CED1"/>
<path d="M262.927 0.0452881V15.9802C260.058 14.493 257.332 13.7493 254.818 13.7493C250.852 13.7493 247.523 15.095 244.903 17.8216C242.282 20.5483 240.937 23.9477 240.937 28.0554C240.937 32.0922 242.282 35.4917 244.938 38.2537C247.594 41.0158 250.887 42.3968 254.782 42.3968C257.686 42.3968 260.413 41.5116 262.891 39.7056V41.7948H265.866V0.0452881H262.927ZM262.927 37.0498C260.554 38.7141 258.075 39.564 255.526 39.564C252.233 39.564 249.506 38.4662 247.311 36.2353C245.115 34.0044 244.017 31.2424 244.017 27.8783C244.017 24.5851 245.044 21.8939 247.098 19.8046C249.152 17.68 251.737 16.653 254.924 16.653C257.615 16.653 260.306 17.5029 262.927 19.2381V37.0498ZM276.808 36.3416C274.648 34.3231 273.479 31.4903 273.515 28.5157C273.515 28.02 273.55 27.5596 273.585 27.0639H295.292C295.292 22.9562 294.124 19.6984 291.751 17.3259C289.414 14.9179 286.51 13.7493 283.111 13.7493C279.464 13.7493 276.454 15.0596 274.081 17.7154C271.673 20.3712 270.469 23.6998 270.469 27.7367C270.469 31.986 271.779 35.4917 274.364 38.2537C276.949 41.0158 280.243 42.3968 284.209 42.3968C288.139 42.3968 291.645 41.1929 294.797 38.7495V35.4209C291.468 38.1475 288.069 39.4931 284.563 39.4931C281.588 39.564 279.003 38.5016 276.808 36.3416ZM277.268 18.7423C278.897 17.3259 280.986 16.5822 283.146 16.6176C287.927 16.6176 290.831 19.3089 291.858 24.6913H273.975C274.506 22.1418 275.604 20.1587 277.268 18.7423ZM307.438 13.7493C304.96 13.7493 302.87 14.493 301.135 15.9448C299.4 17.4321 298.55 19.2026 298.55 21.2919C298.55 22.7791 299.011 24.1248 299.931 25.3287C300.852 26.5327 302.906 27.7721 306.022 29.0115C309.138 30.2509 311.05 31.2778 311.794 32.0922C312.502 32.9067 312.856 33.792 312.856 34.7481C312.856 36.1645 312.325 37.2977 311.227 38.2183C310.13 39.1036 308.749 39.564 307.049 39.564C304.535 39.564 301.631 38.7141 298.373 37.0498V39.9181C301.1 41.6178 303.862 42.4323 306.659 42.4323C309.209 42.4323 311.369 41.6886 313.104 40.2368C314.839 38.7849 315.725 36.979 315.725 34.8189C315.725 33.2254 315.229 31.7735 314.273 30.4633C313.317 29.1531 311.263 27.9137 308.147 26.6744C305.03 25.4704 303.118 24.4435 302.445 23.6644C301.773 22.9562 301.419 22.0355 301.419 21.0794C301.419 19.7692 301.985 18.6715 303.118 17.7508C304.251 16.8655 305.668 16.4052 307.297 16.4052C309.528 16.4052 312.042 17.3613 314.839 19.2381V16.0865C312.148 14.5284 309.705 13.7493 307.438 13.7493ZM320.328 0.0452881H323.302V5.03824H320.328V0.0452881ZM320.328 14.2805H323.302V41.8303H320.328V14.2805ZM351.56 14.2805H340.512C336.759 14.2805 333.855 15.2012 331.837 17.0072C329.818 18.8485 328.827 21.1857 328.827 24.0894C328.827 26.1078 329.464 27.9846 330.703 29.6489C331.943 31.3132 333.784 32.5172 336.192 33.2254V33.3316C332.509 34.394 330.668 35.8812 330.668 37.8288C330.668 39.741 332.155 41.0512 335.13 41.7594V41.8657C329.783 42.7155 327.091 44.9464 327.091 48.5583C327.091 50.7892 328.154 52.5598 330.208 53.9054C332.297 55.251 335.271 55.9238 339.096 55.9238C342.956 55.9238 345.966 55.2156 348.161 53.7992C350.321 52.3827 351.419 50.3997 351.419 47.921C351.419 45.7963 350.746 44.0966 349.4 42.8218C348.055 41.547 345.434 40.8033 341.539 40.5909C337.644 40.3784 335.342 40.0243 334.599 39.5285C333.855 39.0328 333.465 38.3954 333.465 37.6164C333.465 36.9435 333.749 36.3416 334.351 35.8104C334.917 35.2792 336.369 34.7481 338.635 34.1461C340.902 33.5441 342.743 32.9421 344.089 32.3401C345.47 31.7381 346.638 30.7466 347.63 29.401C348.621 28.0554 349.117 26.2494 349.117 23.9477C349.117 21.3981 347.842 18.9548 345.328 16.653H351.56V14.2805ZM348.657 48.1688C348.657 49.7623 347.807 51.0725 346.143 52.0286C344.478 53.0201 342.212 53.4805 339.344 53.4805C333.076 53.4805 329.96 51.7808 329.96 48.3813C329.96 44.9818 333.288 43.2821 339.91 43.2821C345.753 43.3175 348.657 44.9464 348.657 48.1688ZM346.32 24.0539C346.355 26.0015 345.576 27.8783 344.16 29.2594C342.814 30.6758 340.937 31.4548 338.99 31.4194C337.042 31.4548 335.165 30.6404 333.82 29.224C332.439 27.8075 331.659 25.8953 331.695 23.9123C331.695 21.8939 332.403 20.1941 333.784 18.8131C335.165 17.3967 336.9 16.7239 338.919 16.7239C340.973 16.7239 342.708 17.4321 344.16 18.8839C345.576 20.3004 346.32 22.0355 346.32 24.0539ZM354.429 14.2805V41.8303H357.332V22.4959C359.705 18.5652 362.68 16.6176 366.327 16.6176C371.32 16.6176 373.834 19.8046 373.834 26.1432V41.8303H376.773V25.0455C376.773 21.5044 375.852 18.7423 373.976 16.7593C372.134 14.7763 369.62 13.7493 366.539 13.7493C362.786 13.7493 359.776 15.5199 357.474 19.061H357.368V14.2805H354.429Z" fill="#C9CED1"/>
</svg>
