<svg width="27" height="24" viewBox="0 0 27 24" fill="none" xmlns="http://www.w3.org/2000/svg">
<path d="M15.8976 3.05629L18.2766 5.61184H23.5416V20.9452H2.7416V5.61184H8.0066L10.3856 3.05629H15.8976ZM17.0416 0.500732H9.2416L6.8626 3.05629H2.7416C1.3116 3.05629 0.141602 4.20629 0.141602 5.61184V20.9452C0.141602 22.3507 1.3116 23.5007 2.7416 23.5007H23.5416C24.9716 23.5007 26.1416 22.3507 26.1416 20.9452V5.61184C26.1416 4.20629 24.9716 3.05629 23.5416 3.05629H19.4206L17.0416 0.500732ZM13.1416 9.44518C15.2866 9.44518 17.0416 11.1702 17.0416 13.2785C17.0416 15.3868 15.2866 17.1118 13.1416 17.1118C10.9966 17.1118 9.2416 15.3868 9.2416 13.2785C9.2416 11.1702 10.9966 9.44518 13.1416 9.44518ZM13.1416 6.88962C9.5536 6.88962 6.6416 9.75184 6.6416 13.2785C6.6416 16.8052 9.5536 19.6674 13.1416 19.6674C16.7296 19.6674 19.6416 16.8052 19.6416 13.2785C19.6416 9.75184 16.7296 6.88962 13.1416 6.88962Z" fill="white"/>
</svg>
