<svg width="21" height="25" viewBox="0 0 21 25" fill="none" xmlns="http://www.w3.org/2000/svg">
<path d="M12.9167 3.54805V21.6314H7.75V3.54805H12.9167ZM20.6667 0.964722H18.0833V3.54805H15.5V0.964722H5.16667V3.54805H2.58333V0.964722H0V24.2147H2.58333V21.6314H5.16667V24.2147H15.5V21.6314H18.0833V24.2147H20.6667V0.964722ZM15.5 8.71472V6.13139H18.0833V8.71472H15.5ZM2.58333 8.71472V6.13139H5.16667V8.71472H2.58333ZM15.5 13.8814V11.2981H18.0833V13.8814H15.5ZM2.58333 13.8814V11.2981H5.16667V13.8814H2.58333ZM15.5 19.0481V16.4647H18.0833V19.0481H15.5ZM2.58333 19.0481V16.4647H5.16667V19.0481H2.58333Z" fill="#4A4A4A"/>
</svg>
