<svg width="21" height="24" viewBox="0 0 21 24" fill="none" xmlns="http://www.w3.org/2000/svg">
<path d="M13.0583 3.08407V21.1674H7.8916V3.08407H13.0583ZM20.8083 0.500732H18.2249V3.08407H15.6416V0.500732H5.30827V3.08407H2.72493V0.500732H0.141602V23.7507H2.72493V21.1674H5.30827V23.7507H15.6416V21.1674H18.2249V23.7507H20.8083V0.500732ZM15.6416 8.25073V5.6674H18.2249V8.25073H15.6416ZM2.72493 8.25073V5.6674H5.30827V8.25073H2.72493ZM15.6416 13.4174V10.8341H18.2249V13.4174H15.6416ZM2.72493 13.4174V10.8341H5.30827V13.4174H2.72493ZM15.6416 18.5841V16.0007H18.2249V18.5841H15.6416ZM2.72493 18.5841V16.0007H5.30827V18.5841H2.72493Z" fill="white"/>
</svg>
