<svg width="44" height="44" viewBox="0 0 44 44" fill="none" xmlns="http://www.w3.org/2000/svg">
<path fill-rule="evenodd" clip-rule="evenodd" d="M10.0148 0.689213C7.75349 18.5921 20.0362 30.8735 34.6941 36.8453C34.9456 36.9483 35.0653 37.2507 34.9597 37.5201C34.8541 37.7895 34.5641 37.9258 34.3125 37.8228C19.2438 31.6847 6.7097 18.9874 9.03463 0.582967C9.0703 0.296187 9.31931 0.0871495 9.59076 0.115984C9.86101 0.144495 10.0508 0.401153 10.0148 0.689213Z" fill="#0D0C22"/>
<path fill-rule="evenodd" clip-rule="evenodd" d="M34.2281 37.2218C33.6945 36.515 33.0153 35.636 32.941 35.5338C30.9287 32.7639 29.441 29.7984 28.3189 26.4863C28.2275 26.2176 28.363 25.9137 28.6202 25.8083C28.8775 25.703 29.1607 25.8366 29.2521 26.1053C30.3392 29.3174 31.7813 32.1939 33.7336 34.8805C33.8473 35.0372 35.3753 37.012 35.6552 37.4368C35.7707 37.6105 35.7839 37.7485 35.7841 37.7814C35.7913 37.9562 35.7273 38.0749 35.6618 38.1561C35.5872 38.2473 35.4303 38.3671 35.1841 38.3835C34.9264 38.3995 34.391 38.2945 34.2535 38.2796C32.1777 38.0608 29.8848 37.6248 27.6763 37.6806C25.5702 37.7337 23.5384 38.2346 21.8791 39.885C21.6773 40.0861 21.3636 40.0802 21.1798 39.8732C20.996 39.6662 21.0116 39.3342 21.2134 39.1331C23.0688 37.2884 25.3304 36.6939 27.6839 36.6345C29.8794 36.5793 32.1559 36.9945 34.2281 37.2218Z" fill="#0D0C22"/>
</svg>
