<svg width="43" height="43" viewBox="0 0 43 43" fill="none" xmlns="http://www.w3.org/2000/svg">
<path fill-rule="evenodd" clip-rule="evenodd" d="M41.9176 9.26068C35.0058 25.7022 18.423 30.1446 2.9254 28.0125C2.65914 27.9764 2.40725 28.176 2.36453 28.4588C2.32182 28.7416 2.50264 29.0016 2.7689 29.0377C18.7004 31.2305 35.7039 26.5564 42.809 9.65412C42.9202 9.39102 42.8104 9.08903 42.5638 8.97957C42.3184 8.87042 42.0291 8.99631 41.9176 9.26068Z" fill="#0D0C22"/>
<path fill-rule="evenodd" clip-rule="evenodd" d="M3.13868 28.5652C3.94476 28.2238 4.9605 27.8072 5.07457 27.7564C8.16585 26.3798 10.9048 24.5767 13.502 22.2963C13.713 22.1114 13.7473 21.7843 13.5791 21.5671C13.411 21.3498 13.1026 21.3241 12.8916 21.5089C10.3736 23.7212 7.71776 25.4706 4.71902 26.8055C4.54428 26.8834 2.26041 27.8186 1.81093 28.044C1.62618 28.1355 1.54672 28.2471 1.53028 28.2752C1.43774 28.4213 1.43383 28.5545 1.44976 28.6564C1.46857 28.7712 1.54362 28.9514 1.74632 29.087C1.95903 29.2281 2.4692 29.4028 2.59428 29.458C4.47912 30.2966 6.65719 31.0565 8.51999 32.1957C10.2965 33.2819 11.7881 34.7148 12.3928 36.9474C12.4662 37.2193 12.7375 37.3693 12.9972 37.2829C13.2568 37.1965 13.4075 36.9047 13.3342 36.6328C12.6576 34.1369 11.0156 32.5104 9.03046 31.2964C7.1785 30.1643 5.0247 29.3946 3.13868 28.5652Z" fill="#0D0C22"/>
</svg>
