<svg width="48" height="48" viewBox="0 0 48 48" fill="none" xmlns="http://www.w3.org/2000/svg">
<path fill-rule="evenodd" clip-rule="evenodd" d="M29.7681 0.868924C36.5067 17.3822 27.9221 32.2493 15.456 41.7001C15.2422 41.8628 15.2053 42.1821 15.375 42.4123C15.5448 42.6425 15.8565 42.6984 16.0703 42.5357C28.8861 32.821 37.6043 17.4926 30.6767 0.516758C30.5693 0.252097 30.2781 0.116229 30.0263 0.213196C29.7756 0.30955 29.66 0.603129 29.7681 0.868924Z" fill="#0D0C22"/>
<path fill-rule="evenodd" clip-rule="evenodd" d="M15.998 41.9401C16.3267 41.1288 16.7503 40.1159 16.795 39.9993C18.0075 36.8401 18.6693 33.6284 18.8933 30.1793C18.9118 29.8994 18.7047 29.6439 18.4322 29.6092C18.1597 29.5744 17.9234 29.7744 17.9049 30.0543C17.6887 33.399 17.0478 36.514 15.8713 39.5784C15.8028 39.757 14.8491 42.0333 14.6906 42.5104C14.6247 42.7058 14.6475 42.8409 14.6557 42.8724C14.6936 43.0411 14.785 43.1381 14.8683 43.1988C14.9628 43.2668 15.1433 43.3411 15.3825 43.2937C15.6327 43.243 16.1169 43.0058 16.2444 42.9564C18.1702 42.2166 20.2476 41.2138 22.3704 40.7021C24.3946 40.214 26.4626 40.1725 28.4688 41.3236C28.713 41.4639 29.0109 41.3781 29.1334 41.1335C29.256 40.8888 29.1562 40.5759 28.9121 40.4355C26.6688 39.149 24.3576 39.16 22.0955 39.7053C19.9854 40.2143 17.9182 41.193 15.998 41.9401Z" fill="#0D0C22"/>
</svg>
