<svg width="23" height="24" viewBox="0 0 23 24" fill="none" xmlns="http://www.w3.org/2000/svg">
<path d="M11.5 3.83972C13.0813 3.83972 14.375 5.13347 14.375 6.71472C14.375 8.29597 13.0813 9.58972 11.5 9.58972C9.91875 9.58972 8.625 8.29597 8.625 6.71472C8.625 5.13347 9.91875 3.83972 11.5 3.83972ZM11.5 18.2147C15.3813 18.2147 19.8375 20.0691 20.125 21.0897H2.875C3.20563 20.0547 7.63312 18.2147 11.5 18.2147ZM11.5 0.964722C8.32312 0.964722 5.75 3.53785 5.75 6.71472C5.75 9.8916 8.32312 12.4647 11.5 12.4647C14.6769 12.4647 17.25 9.8916 17.25 6.71472C17.25 3.53785 14.6769 0.964722 11.5 0.964722ZM11.5 15.3397C7.66187 15.3397 0 17.266 0 21.0897V23.9647H23V21.0897C23 17.266 15.3381 15.3397 11.5 15.3397Z" fill="#4A4A4A"/>
</svg>
