<svg width="24" height="24" viewBox="0 0 24 24" fill="none" xmlns="http://www.w3.org/2000/svg">
<path d="M11.6416 3.62573C13.2229 3.62573 14.5166 4.91948 14.5166 6.50073C14.5166 8.08198 13.2229 9.37573 11.6416 9.37573C10.0604 9.37573 8.7666 8.08198 8.7666 6.50073C8.7666 4.91948 10.0604 3.62573 11.6416 3.62573ZM11.6416 18.0007C15.5229 18.0007 19.9791 19.8551 20.2666 20.8757H3.0166C3.34723 19.8407 7.77473 18.0007 11.6416 18.0007ZM11.6416 0.750732C8.46473 0.750732 5.8916 3.32386 5.8916 6.50073C5.8916 9.67761 8.46473 12.2507 11.6416 12.2507C14.8185 12.2507 17.3916 9.67761 17.3916 6.50073C17.3916 3.32386 14.8185 0.750732 11.6416 0.750732ZM11.6416 15.1257C7.80348 15.1257 0.141602 17.052 0.141602 20.8757V23.7507H23.1416V20.8757C23.1416 17.052 15.4797 15.1257 11.6416 15.1257Z" fill="white"/>
</svg>
