<svg width="27" height="27" viewBox="0 0 27 27" fill="none" xmlns="http://www.w3.org/2000/svg">
<path d="M13.8618 0.875916C6.73176 0.875916 0.958008 6.66258 0.958008 13.7926C0.958008 20.9226 6.73176 26.7093 13.8618 26.7093C21.0047 26.7093 26.7913 20.9226 26.7913 13.7926C26.7913 6.66258 21.0047 0.875916 13.8618 0.875916ZM22.813 8.62592H19.0026C18.5893 7.01133 17.9951 5.46133 17.2201 4.02758C19.5968 4.84133 21.573 6.49467 22.813 8.62592ZM13.8747 3.51092C14.9468 5.06092 15.7863 6.77883 16.3418 8.62592H11.4076C11.963 6.77883 12.8026 5.06092 13.8747 3.51092ZM3.87717 16.3759C3.67051 15.5492 3.54134 14.6838 3.54134 13.7926C3.54134 12.9013 3.67051 12.0359 3.87717 11.2092H8.24301C8.13967 12.0617 8.06217 12.9142 8.06217 13.7926C8.06217 14.6709 8.13967 15.5234 8.24301 16.3759H3.87717ZM4.93634 18.9592H8.74676C9.16009 20.5738 9.75426 22.1238 10.5293 23.5576C8.15259 22.7438 6.17634 21.1034 4.93634 18.9592ZM8.74676 8.62592H4.93634C6.17634 6.48175 8.15259 4.84133 10.5293 4.02758C9.75426 5.46133 9.16009 7.01133 8.74676 8.62592ZM13.8747 24.0742C12.8026 22.5242 11.963 20.8063 11.4076 18.9592H16.3418C15.7863 20.8063 14.9468 22.5242 13.8747 24.0742ZM16.8972 16.3759H10.8522C10.7359 15.5234 10.6455 14.6709 10.6455 13.7926C10.6455 12.9142 10.7359 12.0488 10.8522 11.2092H16.8972C17.0134 12.0488 17.1038 12.9142 17.1038 13.7926C17.1038 14.6709 17.0134 15.5234 16.8972 16.3759ZM17.2201 23.5576C17.9951 22.1238 18.5893 20.5738 19.0026 18.9592H22.813C21.573 21.0905 19.5968 22.7438 17.2201 23.5576ZM19.5063 16.3759C19.6097 15.5234 19.6872 14.6709 19.6872 13.7926C19.6872 12.9142 19.6097 12.0617 19.5063 11.2092H23.8722C24.0788 12.0359 24.208 12.9013 24.208 13.7926C24.208 14.6838 24.0788 15.5492 23.8722 16.3759H19.5063Z" fill="#5A5A5A"/>
</svg>
