<svg width="24" height="24" viewBox="0 0 24 24" fill="none" xmlns="http://www.w3.org/2000/svg">
<path d="M23.4071 5.86893C23.912 5.364 23.912 4.54835 23.4071 4.04342L19.7431 0.379459C19.2382 -0.125469 18.4226 -0.125469 17.9176 0.379459L12.1045 6.1926L7.06817 1.15627C6.05832 0.146415 4.41407 0.146415 3.40421 1.15627L0.944307 3.61617C-0.0655483 4.62603 -0.0655483 6.27028 0.944307 7.28013L5.98064 12.3165L0.141602 18.1555V23.645H5.63107L11.4831 17.793L16.5194 22.8293C17.7493 24.0593 19.4065 23.6061 20.1833 22.8293L22.6432 20.3694C23.6531 19.3596 23.6531 17.7153 22.6432 16.7054L17.6069 11.6691L23.4071 5.86893ZM2.78276 5.44168L5.22972 2.98178L6.87397 4.62603L5.34624 6.1667L7.17175 7.99221L8.71242 6.45154L10.266 8.00516L7.80614 10.4651L2.78276 5.44168ZM17.3221 15.0741L15.7814 16.6148L17.6069 18.4403L19.1476 16.8997L20.7918 18.5439L18.3319 21.0038L13.2956 15.9675L15.7555 13.5076L17.3221 15.0741ZM4.55648 21.0556H2.73097V19.2301L15.1729 6.78815L16.856 8.47124L16.9984 8.61366L4.55648 21.0556ZM16.9984 4.9497L18.8239 3.12419L20.6494 4.9497L18.8239 6.77521L16.9984 4.9497Z" fill="white"/>
</svg>
