<svg width="25" height="25" viewBox="0 0 25 25" fill="none" xmlns="http://www.w3.org/2000/svg">
<path d="M24.2235 6.66083C24.7284 6.1559 24.7284 5.34025 24.2235 4.83532L20.5596 1.17136C20.0546 0.666432 19.239 0.666432 18.734 1.17136L12.9209 6.9845L7.88458 1.94817C6.87472 0.938316 5.23047 0.938316 4.22062 1.94817L1.76071 4.40807C0.750858 5.41793 0.750858 7.06218 1.76071 8.07203L6.79704 13.1084L0.958008 18.9474V24.4369H6.44748L12.2995 18.5849L17.3358 23.6212C18.5657 24.8512 20.2229 24.398 20.9997 23.6212L23.4596 21.1613C24.4695 20.1515 24.4695 18.5072 23.4596 17.4973L18.4233 12.461L24.2235 6.66083ZM3.59917 6.23358L6.04612 3.77368L7.69037 5.41793L6.16265 6.95861L7.98815 8.78411L9.52883 7.24344L11.0825 8.79706L8.62255 11.257L3.59917 6.23358ZM18.1385 15.866L16.5978 17.4067L18.4233 19.2322L19.964 17.6916L21.6082 19.3358L19.1483 21.7957L14.112 16.7594L16.5719 14.2995L18.1385 15.866ZM5.37289 21.8475H3.54738V20.022L15.9893 7.58005L17.6724 9.26315L17.8148 9.40556L5.37289 21.8475ZM17.8148 5.7416L19.6403 3.91609L21.4658 5.7416L19.6403 7.56711L17.8148 5.7416Z" fill="#5A5A5A"/>
</svg>
