<svg width="23" height="41" viewBox="0 0 23 41" fill="none" xmlns="http://www.w3.org/2000/svg">
<path d="M12.3811 17.9944C7.25246 16.6506 5.60314 15.2611 5.60314 13.0972C5.60314 10.6144 7.88507 8.88333 11.7033 8.88333C15.7249 8.88333 17.2161 10.8194 17.3517 13.6667H22.3448C22.1866 9.74889 19.8143 6.15 15.0923 4.98833V0H8.31434V4.92C3.93124 5.87667 0.406679 8.74667 0.406679 13.1428C0.406679 18.4044 4.722 21.0239 11.0255 22.55C16.6739 23.9167 17.8035 25.9211 17.8035 28.0394C17.8035 29.6111 16.6965 32.1167 11.7033 32.1167C7.04912 32.1167 5.21906 30.0211 4.97053 27.3333H0C0.27112 32.3217 3.97642 35.1233 8.31434 36.0572V41H15.0923V36.1028C19.498 35.26 23 32.6861 23 28.0167C23 21.5478 17.5098 19.3383 12.3811 17.9944Z" fill="white"/>
</svg>
