<svg width="50" height="41" viewBox="0 0 50 41" fill="none" xmlns="http://www.w3.org/2000/svg">
<path d="M22.7273 41L15.5114 34.5083C12.7841 32.0407 10.4455 29.8389 8.49545 27.9028C6.54394 25.9667 4.93409 24.1444 3.66591 22.4361C2.39621 20.7278 1.46818 19.0764 0.881818 17.4819C0.293939 15.8875 0 14.2171 0 12.4708C0 8.90232 1.19318 5.93133 3.57955 3.55789C5.96591 1.18596 8.93939 0 12.5 0C14.4697 0 16.3447 0.417592 18.125 1.25278C19.9053 2.08796 21.4394 3.26481 22.7273 4.78333C24.0152 3.26481 25.5492 2.08796 27.3295 1.25278C29.1098 0.417592 30.9848 0 32.9545 0C36.0227 0 38.5985 0.863278 40.6818 2.58983C42.7652 4.31791 44.1856 6.49167 44.9432 9.11111H40.1136C39.4318 7.59259 38.428 6.4537 37.1023 5.69444C35.7765 4.93518 34.3939 4.55556 32.9545 4.55556C31.0227 4.55556 29.3561 5.07793 27.9545 6.12267C26.553 7.16589 25.2462 8.54167 24.0341 10.25H21.4205C20.2462 8.54167 18.9114 7.16589 17.4159 6.12267C15.9189 5.07793 14.2803 4.55556 12.5 4.55556C10.3409 4.55556 8.475 5.30494 6.90227 6.80372C5.33106 8.30402 4.54545 10.1931 4.54545 12.4708C4.54545 13.7236 4.81061 14.9954 5.34091 16.2861C5.87121 17.5769 6.81818 19.0673 8.18182 20.7574C9.54545 22.446 11.4015 24.4193 13.75 26.6773C16.0985 28.9369 19.0909 31.6611 22.7273 34.85C23.7121 33.9768 24.8674 32.9708 26.1932 31.8319C27.5189 30.6931 28.5795 29.744 29.375 28.9847L29.8864 29.4972L30.9932 30.6088L32.1023 31.7181L32.6136 32.2306C31.7803 32.9898 30.7197 33.929 29.4318 35.0482C28.1439 36.1688 27.0076 37.1657 26.0227 38.0389L22.7273 41ZM38.6364 31.8889V25.0556H31.8182V20.5H38.6364V13.6667H43.1818V20.5H50V25.0556H43.1818V31.8889H38.6364Z" fill="white"/>
</svg>
