<svg width="25" height="24" viewBox="0 0 25 24" fill="none" xmlns="http://www.w3.org/2000/svg">
<g clip-path="url(#clip0_722_18987)">
<path d="M3.67908 20.484C2.53296 19.377 1.61877 18.0529 0.989867 16.5889C0.360959 15.1248 0.0299239 13.5502 0.0160781 11.9568C0.00223228 10.3635 0.305853 8.78331 0.909223 7.30855C1.51259 5.83379 2.40363 4.49397 3.53034 3.36726C4.65706 2.24055 5.99688 1.34951 7.47164 0.746137C8.94639 0.142767 10.5265 -0.160854 12.1199 -0.147008C13.7133 -0.133162 15.2879 0.197873 16.7519 0.826781C18.216 1.45569 19.5401 2.36988 20.6471 3.516C22.833 5.77922 24.0425 8.81045 24.0152 11.9568C23.9878 15.1032 22.7258 18.1129 20.5009 20.3378C18.276 22.5627 15.2663 23.8247 12.1199 23.8521C8.97354 23.8794 5.94231 22.6699 3.67908 20.484ZM18.9551 18.792C20.7564 16.9906 21.7684 14.5475 21.7684 12C21.7684 9.4525 20.7564 7.00935 18.9551 5.208C17.1537 3.40665 14.7106 2.39466 12.1631 2.39466C9.61559 2.39466 7.17243 3.40665 5.37108 5.208C3.56973 7.00935 2.55774 9.4525 2.55774 12C2.55774 14.5475 3.56973 16.9906 5.37108 18.792C7.17243 20.5933 9.61559 21.6053 12.1631 21.6053C14.7106 21.6053 17.1537 20.5933 18.9551 18.792ZM10.9631 6H13.3631V13.2H10.9631V6ZM10.9631 15.6H13.3631V18H10.9631V15.6Z" fill="#100C01"/>
</g>
<defs>
<clipPath id="clip0_722_18987">
<rect width="24" height="24" fill="white" transform="translate(0.163086)"/>
</clipPath>
</defs>
</svg>
