<svg width="30" height="27" viewBox="0 0 30 27" fill="none" xmlns="http://www.w3.org/2000/svg">
<path d="M26.7913 10.001H18.6409L19.868 4.0981L19.9068 3.68477C19.9068 3.15518 19.6872 2.66435 19.3384 2.3156L17.9693 0.959351L9.47009 9.47143C8.99217 9.93643 8.70801 10.5823 8.70801 11.2927V24.2094C8.70801 25.6302 9.87051 26.7927 11.2913 26.7927H22.9163C23.9884 26.7927 24.9055 26.1469 25.293 25.2169L29.1938 16.1106C29.3101 15.8135 29.3747 15.5035 29.3747 15.1677V12.5844C29.3747 11.1635 28.2122 10.001 26.7913 10.001ZM26.7913 15.1677L22.9163 24.2094H11.2913V11.2927L16.8972 5.68685L15.4634 12.5844H26.7913V15.1677ZM0.958008 11.2927H6.12467V26.7927H0.958008V11.2927Z" fill="#5A5A5A"/>
</svg>
