<svg width="24" height="24" viewBox="0 0 24 24" fill="none" xmlns="http://www.w3.org/2000/svg">
<path d="M20.8083 3.08407H18.2249V0.500732H5.30827V3.08407H2.72493C1.3041 3.08407 0.141602 4.24657 0.141602 5.6674V6.95907C0.141602 10.2528 2.6216 12.9395 5.81202 13.3399C6.62577 15.2774 8.36952 16.737 10.4749 17.1632V21.1674H5.30827V23.7507H18.2249V21.1674H13.0583V17.1632C15.1637 16.737 16.9074 15.2774 17.7212 13.3399C20.9116 12.9395 23.3916 10.2528 23.3916 6.95907V5.6674C23.3916 4.24657 22.2291 3.08407 20.8083 3.08407ZM2.72493 6.95907V5.6674H5.30827V10.6016C3.80993 10.0591 2.72493 8.63823 2.72493 6.95907ZM11.7666 14.7091C9.63535 14.7091 7.8916 12.9653 7.8916 10.8341V3.08407H15.6416V10.8341C15.6416 12.9653 13.8979 14.7091 11.7666 14.7091ZM20.8083 6.95907C20.8083 8.63823 19.7233 10.0591 18.2249 10.6016V5.6674H20.8083V6.95907Z" fill="white"/>
</svg>
