<svg width="24" height="25" viewBox="0 0 24 25" fill="none" xmlns="http://www.w3.org/2000/svg">
<path d="M20.6667 3.54805H18.0833V0.964722H5.16667V3.54805H2.58333C1.1625 3.54805 0 4.71055 0 6.13139V7.42305C0 10.7168 2.48 13.4035 5.67042 13.8039C6.48417 15.7414 8.22792 17.201 10.3333 17.6272V21.6314H5.16667V24.2147H18.0833V21.6314H12.9167V17.6272C15.0221 17.201 16.7658 15.7414 17.5796 13.8039C20.77 13.4035 23.25 10.7168 23.25 7.42305V6.13139C23.25 4.71055 22.0875 3.54805 20.6667 3.54805ZM2.58333 7.42305V6.13139H5.16667V11.0656C3.66833 10.5231 2.58333 9.10222 2.58333 7.42305ZM11.625 15.1731C9.49375 15.1731 7.75 13.4293 7.75 11.2981V3.54805H15.5V11.2981C15.5 13.4293 13.7562 15.1731 11.625 15.1731ZM20.6667 7.42305C20.6667 9.10222 19.5817 10.5231 18.0833 11.0656V6.13139H20.6667V7.42305Z" fill="#4A4A4A"/>
</svg>
