<svg width="300" height="39" viewBox="0 0 300 39" fill="none" xmlns="http://www.w3.org/2000/svg">
<path fill-rule="evenodd" clip-rule="evenodd" d="M66.1308 6.32263C56.3998 6.32263 50.284 13.1462 50.284 22.6781C50.284 32.21 57.0457 38.0573 66.1308 38.0573C74.1741 38.0573 80.4566 33.4383 81.3317 25.397H71.7257C71.2569 28.5778 69.5065 30.5409 66.0683 30.5409C61.8696 30.5409 60.1818 26.5518 60.1818 22.6781C60.1818 18.521 61.0569 13.839 66.5893 13.839C69.0898 13.839 71.361 15.6341 71.4235 18.1746H81.0296C80.3316 10.2488 73.6427 6.32263 66.1204 6.32263H66.1308ZM172.256 6.32263C167.974 6.32263 164.952 8.27521 163.15 11.4245H163.025V7.19395H153.419V37.1964H163.317V21.6178C163.317 17.2403 165.223 14.4164 168.672 14.4164C173.808 14.4164 173.621 18.584 173.621 22.6886V37.2069H183.519V17.9541C183.519 13.6186 182.31 6.33313 172.235 6.33313L172.256 6.32263ZM201.157 6.32263C197.719 6.32263 194.229 6.90001 191.541 8.41168C188.863 9.96535 186.998 12.5163 186.821 16.4424H196.084C196.552 13.902 198.292 12.6843 201.032 12.6843C203.074 12.6843 205.804 13.5451 205.804 15.8021C205.804 17.6602 204.877 18.2271 203.189 18.584C196.313 19.9697 185.602 19.2243 185.602 28.9872C185.602 35.1809 190.145 38.0678 195.906 38.0678C199.522 38.0678 203.314 37.0285 205.867 34.3726C205.981 35.3593 206.096 36.2726 206.45 37.2069H216.41C215.244 34.8345 215.244 32.0631 215.244 29.5121V16.39C215.244 7.89729 208.305 6.33313 201.147 6.33313L201.157 6.32263ZM205.7 23.14C205.929 29.3232 204.356 31.9791 199.636 31.9791C197.428 31.9791 195.5 30.9923 195.5 28.5778C195.5 26.1633 197.365 25.2815 199.574 24.7566C201.73 24.1793 204.293 24.0113 205.69 23.14H205.7ZM218.484 0.496398V37.1859H228.382V0.496398H218.484ZM251.949 0.496398V10.4272H251.824C249.792 7.70833 246.937 6.32263 243.207 6.32263C234.643 6.32263 230.455 13.7235 230.455 21.5233C230.455 29.9635 234.477 38.0573 243.968 38.0573C247.458 38.0573 250.375 36.5561 252.303 33.7217H252.418V37.1964H261.857V0.496398H251.959H251.949ZM246.406 13.8285C250.719 13.8285 252.293 17.8176 252.293 22.1532C252.293 25.9639 251.24 30.5304 246.406 30.5304C241.863 30.5304 240.353 25.9639 240.353 21.8593C240.353 18.0486 241.863 13.8285 246.406 13.8285ZM263.909 0.496398V10.4167H268.546L273.172 0.496398H263.909ZM83.3947 0.496398V37.1859H99.2936C110.525 37.1859 117.412 30.7089 117.412 18.689C117.412 7.33042 110.629 0.496398 99.2936 0.496398H83.3947ZM93.9488 8.99955H98.3976C104.149 8.99955 106.733 12.8207 106.733 18.6575C106.733 25.0821 104.649 28.6828 98.3976 28.6828H93.9488V9.01005V8.99955ZM8.60909 0.443909L0.972168 37.1859H11.8806L14.6936 22.5941C14.9958 20.9775 15.2458 19.3608 15.4646 17.7337H15.5792C15.7459 18.7519 16.1939 20.757 16.6419 22.4786L20.601 37.1859H31.4365L35.3956 22.4786C35.8436 20.7675 36.2916 18.7519 36.4583 17.7337H36.5729C36.6667 18.5105 36.9688 20.715 37.3335 22.5941L40.1465 37.1859H51.0445L43.4076 0.443909H31.8533L27.2273 18.8989C26.8418 20.3266 26.3626 22.6466 26.0709 23.8538H25.9667C25.675 22.6466 25.1957 20.3266 24.8102 18.8989L20.1739 0.443909H8.61951H8.60909ZM135.394 6.31214C125.632 6.31214 119.485 13.1881 119.485 22.2057C119.485 31.2232 125.632 38.0992 135.394 38.0992C145.157 38.0992 151.293 31.2232 151.293 22.2057C151.293 13.1881 145.157 6.31214 135.394 6.31214ZM135.394 13.8285C139.677 13.8285 141.396 17.4082 141.396 22.2057C141.396 27.0032 139.677 30.5829 135.394 30.5829C131.112 30.5829 129.393 27.0137 129.393 22.2057C129.393 17.3977 131.112 13.8285 135.394 13.8285ZM284.966 6.31214C279.1 6.31214 271.088 8.27521 271.088 15.5081C271.088 23.6019 279.048 23.7699 285.195 25.334C286.914 25.7434 289.967 26.2053 289.967 28.5148C289.967 30.8873 287.268 31.6956 285.362 31.6956C283.986 31.6956 282.788 31.3492 281.871 30.6564C280.892 29.9005 280.267 28.7983 280.267 27.3076H270.817C271.109 35.6953 278.35 38.0573 285.424 38.0573C292.498 38.0573 300 35.4013 300 27.3601C300 24.8721 298.447 20.4841 292.415 19.2663C287.925 18.29 281.121 17.7652 281.121 14.9413C281.121 12.8522 283.705 12.6843 285.32 12.6843C286.528 12.6843 287.487 12.9152 288.3 13.4401C289.102 13.965 289.56 14.7733 289.56 16.0435H298.718C298.375 8.24372 291.529 6.33313 284.976 6.33313L284.966 6.31214Z" fill="#C9CED1"/>
</svg>
