<svg width="28" height="28" viewBox="0 0 28 28" fill="none" xmlns="http://www.w3.org/2000/svg">
<path d="M25.2 0H2.8C1.26 0 0.014 1.26 0.014 2.8L0 28L5.6 22.4H25.2C26.74 22.4 28 21.14 28 19.6V2.8C28 1.26 26.74 0 25.2 0ZM7 9.8H21C21.77 9.8 22.4 10.43 22.4 11.2C22.4 11.97 21.77 12.6 21 12.6H7C6.23 12.6 5.6 11.97 5.6 11.2C5.6 10.43 6.23 9.8 7 9.8ZM15.4 16.8H7C6.23 16.8 5.6 16.17 5.6 15.4C5.6 14.63 6.23 14 7 14H15.4C16.17 14 16.8 14.63 16.8 15.4C16.8 16.17 16.17 16.8 15.4 16.8ZM21 8.4H7C6.23 8.4 5.6 7.77 5.6 7C5.6 6.23 6.23 5.6 7 5.6H21C21.77 5.6 22.4 6.23 22.4 7C22.4 7.77 21.77 8.4 21 8.4Z" fill="black"/>
</svg>
