<svg width="289" height="62" viewBox="0 0 289 62" fill="none" xmlns="http://www.w3.org/2000/svg">
<path d="M102.036 35.8085L100.317 40.6773H100.173C99.8845 39.5759 99.3596 37.9084 98.5052 35.9115L89.3031 12.7825H80.2861V49.653H86.2459V26.9049C86.2459 25.4741 86.2459 23.8477 86.1945 21.8508C86.143 20.8524 86.0504 20.0907 85.9989 19.5143H86.143C86.4312 20.945 86.7606 21.995 86.9974 22.664L98.0626 49.5707H102.262L113.235 22.4273C113.472 21.8097 113.708 20.5642 113.955 19.5143H114.1C113.955 22.2317 113.863 24.6609 113.811 26.1431V49.5192H120.152V12.6795H111.475L102.026 35.8085H102.036ZM126.174 23.0757H132.37V49.4986H126.174V23.0757ZM129.323 11.9178C128.273 11.9178 127.419 12.2987 126.699 12.9677C125.978 13.6368 125.597 14.4912 125.597 15.5411C125.597 16.591 125.978 17.4041 126.699 18.0732C127.419 18.7423 128.273 19.0717 129.323 19.0717C130.373 19.0717 131.279 18.6908 131.948 18.0732C132.669 17.4041 133.049 16.5498 133.049 15.5411C133.049 14.5323 132.669 13.678 131.948 12.9677C131.331 12.2987 130.425 11.9178 129.323 11.9178ZM154.367 22.839C153.224 22.6023 152.03 22.4582 150.888 22.4582C148.078 22.4582 145.494 23.0757 143.353 24.3212C141.212 25.5667 139.493 27.2754 138.392 29.4267C137.249 31.6192 136.673 34.1513 136.673 37.054C136.673 39.5862 137.249 41.8198 138.34 43.8785C139.442 45.8857 140.965 47.5017 143.013 48.6031C144.969 49.7045 147.254 50.2706 149.838 50.2706C152.792 50.2706 155.324 49.653 157.331 48.5105L157.383 48.459V42.7359L157.146 42.9315C156.24 43.6006 155.19 44.1667 154.14 44.5064C153.039 44.8872 152.041 45.0828 151.186 45.0828C148.706 45.0828 146.75 44.3623 145.371 42.7977C143.94 41.2743 143.219 39.1744 143.219 36.5497C143.219 33.9249 143.94 31.6809 145.412 30.1061C146.884 28.5312 148.85 27.718 151.227 27.718C153.235 27.718 155.283 28.3871 157.146 29.7252L157.383 29.9208V23.858L157.331 23.8066C156.518 23.4772 155.612 23.086 154.377 22.8493M174.84 22.6537C173.317 22.6537 171.886 23.1272 170.641 24.136C169.591 24.9903 168.88 26.2358 168.253 27.718H168.201V23.0963H162.005V49.5192H168.201V36.0247C168.201 33.7396 168.675 31.825 169.724 30.4457C170.774 29.015 172.113 28.2944 173.729 28.2944C174.305 28.2944 174.871 28.4385 175.592 28.5312C176.261 28.7268 176.734 28.912 177.074 29.1488L177.311 29.3444V23.1478L177.167 23.0963C176.734 22.8081 175.88 22.664 174.83 22.664M191.711 22.5199C187.367 22.5199 183.888 23.8066 181.459 26.3387C178.978 28.8709 177.784 32.35 177.784 36.7349C177.784 40.842 179.019 44.177 181.407 46.6062C183.795 48.9942 187.038 50.2294 191.093 50.2294C195.149 50.2294 198.721 48.9428 201.16 46.3694C203.641 43.7961 204.835 40.3582 204.835 36.1173C204.835 31.8765 203.692 28.5827 201.356 26.1534C199.112 23.7242 195.818 22.5302 191.721 22.5302M196.683 42.8491C195.54 44.3314 193.728 45.0416 191.484 45.0416C189.241 45.0416 187.429 44.3211 186.142 42.7565C184.856 41.2743 184.238 39.1333 184.238 36.4158C184.238 33.6984 184.907 31.4545 186.142 29.9311C187.429 28.4077 189.199 27.646 191.433 27.646C193.667 27.646 195.344 28.3665 196.58 29.8384C197.815 31.3207 198.484 33.4617 198.484 36.282C198.391 39.1436 197.866 41.3875 196.672 42.8594M218.659 34.0793C216.703 33.2661 215.468 32.6485 214.891 32.1235C214.418 31.6501 214.171 30.981 214.171 30.1164C214.171 29.3958 214.459 28.6856 215.169 28.2121C215.88 27.7386 216.693 27.4916 217.887 27.4916C218.937 27.4916 220.038 27.6871 221.078 27.9651C222.117 28.243 223.085 28.6856 223.847 29.2517L224.083 29.4473V23.6316L223.939 23.5801C223.219 23.2919 222.272 23.0037 221.129 22.767C219.987 22.5714 218.937 22.4787 218.072 22.4787C215.118 22.4787 212.678 23.1993 210.774 24.7638C208.87 26.2461 207.964 28.243 207.964 30.5796C207.964 31.8147 208.16 32.9161 208.582 33.8219C209.004 34.7277 209.632 35.5821 210.486 36.3026C211.34 36.9717 212.586 37.7334 214.305 38.4539C215.735 39.0715 216.837 39.5553 217.496 39.9361C218.154 40.317 218.597 40.7493 218.926 41.0787C219.163 41.4596 219.307 41.933 219.307 42.5609C219.307 44.3211 217.969 45.1857 215.252 45.1857C214.202 45.1857 213.1 44.9901 211.814 44.5681C210.527 44.1461 209.333 43.5182 208.335 42.808L208.098 42.6124V48.6751L208.242 48.7266C209.148 49.1589 210.249 49.4471 211.577 49.7765C212.915 50.0133 214.109 50.2088 215.159 50.2088C218.35 50.2088 220.975 49.4883 222.838 47.9237C224.742 46.4003 225.751 44.4446 225.751 41.9125C225.751 40.1523 225.277 38.5774 224.227 37.3834C222.848 36.2409 221.129 35.0468 218.648 34.0896M242.117 22.5508C237.773 22.5508 234.294 23.8375 231.865 26.3696C229.436 28.9017 228.19 32.3809 228.19 36.7658C228.19 40.8728 229.425 44.2079 231.814 46.6371C234.202 49.0251 237.444 50.2603 241.5 50.2603C245.555 50.2603 249.127 48.9737 251.566 46.4003C254.047 43.827 255.241 40.389 255.241 36.1482C255.241 31.9074 254.098 28.6135 251.762 26.1843C249.518 23.7551 246.224 22.5611 242.127 22.5611M247.037 42.88C245.895 44.3623 244.083 45.0725 241.839 45.0725C239.595 45.0725 237.784 44.352 236.497 42.7874C235.21 41.3052 234.593 39.1642 234.593 36.4467C234.593 33.7293 235.262 31.4854 236.497 29.962C237.784 28.4385 239.554 27.6768 241.788 27.6768C244.021 27.6768 245.699 28.3974 246.934 29.8693C248.17 31.3515 248.839 33.4925 248.839 36.3129C248.839 39.1333 248.221 41.4184 247.027 42.8903M288.385 28.243V23.1375H282.137V15.3146L281.942 15.3661L276.023 17.1262L275.879 17.1777V23.1375H266.533V19.8025C266.533 18.2791 266.914 17.0851 267.583 16.3234C268.252 15.5617 269.25 15.1808 270.496 15.1808C271.35 15.1808 272.256 15.3764 273.265 15.7984L273.501 15.9425V10.5488L273.357 10.4974C272.503 10.2091 271.35 10.0239 269.878 10.0239C268.015 10.0239 266.399 10.4562 264.917 11.1664C263.434 11.9796 262.343 13.0707 261.53 14.5529C260.717 15.9837 260.295 17.61 260.295 19.4628V23.1375H255.951V28.1915H260.295V49.5604H266.543V28.243H275.889V41.8404C275.889 47.4194 278.514 50.2397 283.764 50.2397C284.618 50.2397 285.524 50.0956 286.389 49.9515C287.294 49.7559 287.963 49.5192 288.344 49.3339L288.396 49.2824V44.177L288.159 44.3726C287.778 44.6093 287.438 44.8049 286.872 44.949C286.399 45.0931 285.966 45.1446 285.637 45.1446C284.402 45.1446 283.537 44.8563 282.92 44.1461C282.343 43.477 282.065 42.3859 282.065 40.7596V28.2636H288.406L288.385 28.243Z" fill="#C9CED1"/>
<path d="M0.348633 0.36853H29.5919V29.6117H0.348633V0.36853Z" fill="#C9CED1"/>
<path d="M32.6387 0.36853H61.8819V29.6117H32.6387V0.36853Z" fill="#C9CED1"/>
<path d="M0.348633 32.6583H29.5919V61.9015H0.348633V32.6583Z" fill="#C9CED1"/>
<path d="M32.6387 32.6583H61.8819V61.9015H32.6387V32.6583Z" fill="#C9CED1"/>
</svg>
