<svg width="226" height="61" viewBox="0 0 226 61" fill="none" xmlns="http://www.w3.org/2000/svg">
<path d="M213.841 28.8403L225.932 60.1741C222.369 59.674 218.805 59.0569 215.188 58.493L208.376 41.1823L201.38 57.0673C197.947 56.5034 194.569 56.3225 191.136 55.8863L203.412 28.4785L192.276 0.37917H202.586L208.822 16.0727L215.503 0.37917H225.932L213.852 28.8509L213.841 28.8403ZM184.139 0.36853H174.786V54.6946C177.839 54.8862 181.022 55.0032 184.139 55.3756V0.36853ZM166.714 54.0669C158.186 53.503 149.669 53.0136 140.956 52.8221V0.36853H150.495V43.9805C155.97 44.1082 161.434 44.5338 166.714 44.7891V54.0775V54.0669ZM130.777 21.6159V30.9576H117.741V52.205H108.333V0.36853H135.046V9.71015H117.741V21.6159H130.777ZM92.2979 9.71015V52.6944C89.1148 52.6944 85.8774 52.6944 82.7595 52.8221V9.72079H72.8953V0.36853H102.216V9.71015H92.2979ZM62.5965 31.447C58.4032 31.447 53.4385 31.447 49.8752 31.6385V45.5339C55.47 45.1615 61.0756 44.7253 66.7356 44.5338V53.503L40.3369 55.5565V0.36853H66.7356V9.71015H49.886V22.2969C53.5797 22.2969 59.2397 22.1054 62.6074 22.1054V31.447H62.5965ZM9.73386 26.2123V58.8548C6.30094 59.2271 3.24824 59.6634 0 60.1634V0.36853H9.0929L21.4992 34.3197V0.36853H31.0375V56.3119C27.6698 56.8758 24.226 57.0566 20.6084 57.5567L9.72299 26.2229L9.73386 26.2123Z" fill="#C9CED1"/>
</svg>
