<svg width="71" height="71" viewBox="0 0 71 71" fill="none" xmlns="http://www.w3.org/2000/svg">
<path d="M36.9788 40.4551V29.5833H44.3746L41.4163 26.6249H36.9788V14.7916C36.9788 13.9534 37.2623 13.2508 37.8293 12.6838C38.3963 12.1168 39.0989 11.8333 39.9371 11.8333H47.1111C47.6534 11.8333 48.1588 11.9688 48.6272 12.24C49.0956 12.5112 49.4531 12.8933 49.6996 13.3864L55.4684 23.6666H51.1788L48.2204 17.7499H41.4163V20.7083H46.4454L49.4038 26.6249H57.0954L61.459 34.2426C60.177 33.7003 58.8458 33.2812 57.4652 32.9853C56.0847 32.6895 54.6795 32.5416 53.2496 32.5416C49.9461 32.5416 46.8769 33.2565 44.0418 34.6864C41.2067 36.1162 38.8524 38.0392 36.9788 40.4551ZM31.0621 59.1666H23.8882C23.3458 59.1666 22.8404 59.031 22.372 58.7598C21.9036 58.4886 21.5461 58.1065 21.2996 57.6135L15.5309 47.3333H19.8204L22.7788 53.2499H29.5829V50.2916H24.5538L21.5954 44.3749H13.9038L9.68815 36.9791C9.58954 36.7326 9.50326 36.486 9.4293 36.2395C9.35534 35.993 9.31836 35.7464 9.31836 35.4999C9.31836 35.3027 9.44162 34.8096 9.68815 34.0208L13.9038 26.6249H21.5954L24.5538 20.7083H29.5829V17.7499H22.7788L19.8204 23.6666H15.5309L21.2996 13.3864C21.5461 12.8933 21.9036 12.5112 22.372 12.24C22.8404 11.9688 23.3458 11.8333 23.8882 11.8333H31.0621C31.9003 11.8333 32.6029 12.1168 33.1699 12.6838C33.7369 13.2508 34.0204 13.9534 34.0204 14.7916V26.6249H29.5829L26.6246 29.5833H34.0204V38.4583H27.5121L24.5538 32.5416H17.7496L14.7913 35.4999H22.7788L25.7371 41.4166H34.0204V45.5583C33.5274 46.7416 33.1576 47.9742 32.9111 49.2562C32.6645 50.5381 32.5413 51.8694 32.5413 53.2499C32.5413 54.0881 32.5783 54.9263 32.6522 55.7645C32.7262 56.6027 32.8864 57.4409 33.1329 58.2791C32.8864 58.5256 32.5783 58.7352 32.2085 58.9077C31.8387 59.0803 31.4566 59.1666 31.0621 59.1666ZM51.7704 56.5041L47.4809 52.2145C47.185 51.9187 46.8399 51.7708 46.4454 51.7708C46.051 51.7708 45.7059 51.9187 45.41 52.2145C45.1142 52.5103 44.9663 52.8555 44.9663 53.2499C44.9663 53.6444 45.1142 53.9895 45.41 54.2853L52.2142 61.0895C52.51 61.3853 52.8552 61.5332 53.2496 61.5332C53.6441 61.5332 53.9892 61.3853 54.285 61.0895L61.0892 54.2853C61.385 53.9895 61.5329 53.6444 61.5329 53.2499C61.5329 52.8555 61.385 52.5103 61.0892 52.2145C60.7934 51.9187 60.4482 51.7708 60.0538 51.7708C59.6593 51.7708 59.3142 51.9187 59.0184 52.2145L54.7288 56.5041V45.8541C54.7288 45.4596 54.5809 45.1145 54.285 44.8187C53.9892 44.5228 53.6441 44.3749 53.2496 44.3749C52.8552 44.3749 52.51 44.5228 52.2142 44.8187C51.9184 45.1145 51.7704 45.4596 51.7704 45.8541V56.5041ZM53.2496 68.0416C49.1572 68.0416 45.6689 66.5994 42.7845 63.715C39.9001 60.8306 38.4579 57.3423 38.4579 53.2499C38.4579 49.1576 39.9001 45.6692 42.7845 42.7848C45.6689 39.9004 49.1572 38.4583 53.2496 38.4583C57.342 38.4583 60.8303 39.9004 63.7147 42.7848C66.5991 45.6692 68.0413 49.1576 68.0413 53.2499C68.0413 57.3423 66.5991 60.8306 63.7147 63.715C60.8303 66.5994 57.342 68.0416 53.2496 68.0416Z" fill="white"/>
</svg>
