<svg width="71" height="71" viewBox="0 0 71 71" fill="none" xmlns="http://www.w3.org/2000/svg">
<path d="M51.1052 53.6198L49.8479 52.3625C49.4042 51.9188 48.8736 51.6969 48.2563 51.6969C47.641 51.6969 47.1115 51.9188 46.6677 52.3625C46.224 52.8063 46.0021 53.324 46.0021 53.9156C46.0021 54.5073 46.224 55.025 46.6677 55.4688L49.5521 58.3531C49.9958 58.7969 50.5135 59.0188 51.1052 59.0188C51.6969 59.0188 52.2146 58.7969 52.6583 58.3531L59.8323 51.3271C60.276 50.8833 60.4979 50.3528 60.4979 49.7355C60.4979 49.1202 60.276 48.5906 59.8323 48.1469C59.3885 47.7031 58.859 47.4813 58.2437 47.4813C57.6264 47.4813 57.0958 47.7031 56.6521 48.1469L51.1052 53.6198ZM50.2917 26.625C51.1299 26.625 51.832 26.341 52.398 25.773C52.966 25.207 53.25 24.5049 53.25 23.6667C53.25 22.8285 52.966 22.1254 52.398 21.5574C51.832 20.9913 51.1299 20.7083 50.2917 20.7083H20.7083C19.8701 20.7083 19.167 20.9913 18.599 21.5574C18.033 22.1254 17.75 22.8285 17.75 23.6667C17.75 24.5049 18.033 25.207 18.599 25.773C19.167 26.341 19.8701 26.625 20.7083 26.625H50.2917ZM53.25 68.0417C49.1576 68.0417 45.6698 66.6 42.7864 63.7166C39.901 60.8312 38.4583 57.3424 38.4583 53.25C38.4583 49.1576 39.901 45.6688 42.7864 42.7834C45.6698 39.9 49.1576 38.4583 53.25 38.4583C57.3424 38.4583 60.8312 39.9 63.7166 42.7834C66.6 45.6688 68.0417 49.1576 68.0417 53.25C68.0417 57.3424 66.6 60.8312 63.7166 63.7166C60.8312 66.6 57.3424 68.0417 53.25 68.0417ZM14.7917 8.875H56.2083C57.8354 8.875 59.2288 9.45385 60.3885 10.6115C61.5462 11.7712 62.125 13.1646 62.125 14.7917V34.5385C60.7444 33.8483 59.3028 33.3424 57.7999 33.0209C56.2951 32.7014 54.7785 32.5417 53.25 32.5417H20.7083C19.8701 32.5417 19.167 32.8247 18.599 33.3907C18.033 33.9587 17.75 34.6618 17.75 35.5C17.75 36.3382 18.033 37.0403 18.599 37.6063C19.167 38.1743 19.8701 38.4583 20.7083 38.4583H38.7542C37.916 39.2965 37.1389 40.2087 36.423 41.1948C35.7091 42.1809 35.0809 43.241 34.5385 44.375H20.7083C19.8701 44.375 19.167 44.658 18.599 45.224C18.033 45.792 17.75 46.4951 17.75 47.3333C17.75 48.1715 18.033 48.8736 18.599 49.4397C19.167 50.0077 19.8701 50.2917 20.7083 50.2917H32.7635C32.6649 50.7847 32.6028 51.2659 32.5772 51.7353C32.5535 52.2028 32.5417 52.7076 32.5417 53.25C32.5417 55.3208 32.8257 57.3059 33.3937 59.2051C33.9597 61.1024 34.8097 62.9139 35.9438 64.6396C35.6972 64.6889 35.4379 64.6514 35.1657 64.5272C34.8955 64.4049 34.6618 64.2451 34.4646 64.0479L32.0979 61.6813C31.8021 61.3854 31.4569 61.2375 31.0625 61.2375C30.6681 61.2375 30.3229 61.3854 30.0271 61.6813L27.6604 64.0479C27.3646 64.3438 27.0194 64.4917 26.625 64.4917C26.2306 64.4917 25.8854 64.3438 25.5896 64.0479L23.2229 61.6813C22.9271 61.3854 22.5819 61.2375 22.1875 61.2375C21.7931 61.2375 21.4479 61.3854 21.1521 61.6813L18.7854 64.0479C18.4896 64.3438 18.1444 64.4917 17.75 64.4917C17.3556 64.4917 17.0104 64.3438 16.7146 64.0479L14.3479 61.6813C14.0521 61.3854 13.7069 61.2375 13.3125 61.2375C12.9181 61.2375 12.5729 61.3854 12.2771 61.6813L9.91042 64.0479L8.875 64.7135V14.7917C8.875 13.1646 9.45385 11.7712 10.6115 10.6115C11.7712 9.45385 13.1646 8.875 14.7917 8.875Z" fill="white"/>
</svg>
