<svg width="20" height="21" viewBox="0 0 20 21" fill="none" xmlns="http://www.w3.org/2000/svg">
<path d="M19.375 10.5C19.375 15.8516 15.0391 20.1875 9.6875 20.1875C8.67188 20.1875 7.69531 20.0703 6.79688 19.7578C7.1875 19.1328 7.77344 18.0781 8.00781 17.2188C8.125 16.7891 8.59375 14.9141 8.59375 14.9141C8.90625 15.5391 9.84375 16.0469 10.8203 16.0469C13.75 16.0469 15.8594 13.3516 15.8594 10.0312C15.8594 6.82812 13.2422 4.40625 9.88281 4.40625C5.70312 4.40625 3.47656 7.21875 3.47656 10.2656C3.47656 11.7109 4.21875 13.4688 5.42969 14.0547C5.625 14.1328 5.74219 14.0938 5.78125 13.8984C5.78125 13.7812 5.97656 13.1172 6.05469 12.8047C6.05469 12.7266 6.05469 12.6094 5.97656 12.5312C5.58594 12.0625 5.27344 11.1641 5.27344 10.3047C5.27344 8.19531 6.875 6.125 9.64844 6.125C11.9922 6.125 13.6719 7.72656 13.6719 10.0703C13.6719 12.6875 12.3438 14.4844 10.625 14.4844C9.6875 14.4844 8.98438 13.7031 9.17969 12.7656C9.45312 11.5938 10 10.3438 10 9.52344C10 8.78125 9.60938 8.15625 8.78906 8.15625C7.8125 8.15625 7.03125 9.17188 7.03125 10.5C7.03125 11.3594 7.30469 11.9453 7.30469 11.9453C7.30469 11.9453 6.36719 16.0078 6.17188 16.75C5.97656 17.6094 6.05469 18.7812 6.13281 19.5234C2.53906 18.1172 0 14.6406 0 10.5C0 5.14844 4.33594 0.8125 9.6875 0.8125C15.0391 0.8125 19.375 5.14844 19.375 10.5Z" fill="white"/>
</svg>
