<svg width="351" height="86" viewBox="0 0 351 86" fill="none" xmlns="http://www.w3.org/2000/svg">
<path d="M132.127 43.2533C132.127 32.4814 129.072 27.015 122.963 26.6935C120.551 26.6131 118.139 26.9347 115.808 27.8993C113.959 28.5424 112.753 29.1855 112.03 29.909V55.4722C115.969 57.9642 119.426 59.0896 122.48 58.9288C128.911 58.5269 132.127 53.3017 132.127 43.2533ZM139.683 43.7356C139.683 49.202 138.397 53.7037 135.825 57.3211C132.931 61.4209 128.992 63.5109 123.927 63.5913C120.069 63.7521 116.13 62.5463 112.11 59.9739V83.2862L105.519 80.955V29.2659C106.564 27.9797 108.011 26.7739 109.699 25.8092C113.638 23.5584 118.381 22.3526 123.927 22.2722L124.008 22.3526C129.152 22.2722 133.091 24.3623 135.825 28.6228C138.397 32.5618 139.683 37.6262 139.683 43.7356ZM179.877 59.0092C179.877 66.3245 179.153 71.3889 177.706 74.2025C176.259 77.016 173.446 79.2669 169.266 80.955C165.889 82.2412 162.272 82.9647 158.413 83.1255L157.288 78.9453C161.227 78.3826 164.041 77.9003 165.648 77.3376C168.864 76.2925 171.034 74.6044 172.24 72.3535C173.205 70.585 173.687 67.1284 173.687 61.9836V60.2954C169.185 62.3051 164.443 63.3502 159.539 63.3502C156.323 63.3502 153.429 62.3051 151.018 60.2954C148.285 58.0446 146.838 55.231 146.838 51.8548V24.523L153.429 22.2722V49.8451C153.429 52.8194 154.394 55.0702 156.243 56.678C158.172 58.2857 160.584 59.0092 163.639 59.0092C166.613 58.9288 169.909 57.8034 173.285 55.4722V23.3172H179.877V59.0092ZM205.52 63.2698C204.797 63.3501 204.074 63.3502 203.35 63.3502C199.652 63.3502 196.758 62.4659 194.668 60.6974C192.578 58.9288 191.533 56.4368 191.533 53.3017V27.417H187.031V23.3172H191.533V12.3042L198.125 9.97292V23.3172H205.52V27.417H198.125V53.1409C198.125 55.633 198.768 57.3211 200.135 58.3661C201.26 59.17 203.109 59.6523 205.52 59.8131V63.2698ZM245.312 62.7071H238.72V37.3046C238.72 34.7322 238.077 32.4814 236.952 30.6325C235.585 28.5424 233.656 27.4974 231.164 27.4974C228.19 27.4974 224.412 29.1051 219.829 32.2402V62.7071H213.238V2.09496L219.829 0.00488281V27.6581C224.01 24.6034 228.592 23.0761 233.576 23.0761C237.032 23.0761 239.846 24.2819 242.016 26.6131C244.187 28.9443 245.232 31.8383 245.232 35.3753L245.312 62.7071ZM280.281 42.2083C280.281 38.1085 279.477 34.6518 277.95 31.9991C276.101 28.7032 273.207 27.015 269.348 26.7739C262.113 27.1758 258.576 32.3206 258.576 42.2887C258.576 46.7903 259.3 50.6489 260.827 53.6233C262.756 57.4819 265.65 59.4112 269.509 59.3308C276.663 59.3308 280.281 53.6233 280.281 42.2083ZM287.435 42.2887C287.435 48.1569 285.908 53.0606 282.934 56.9995C279.638 61.3405 275.056 63.5913 269.268 63.5913C263.48 63.5913 258.978 61.4209 255.763 56.9995C252.788 53.0606 251.341 48.2373 251.341 42.2887C251.341 36.7419 252.949 32.1598 256.084 28.3012C259.46 24.2819 263.882 22.2722 269.348 22.2722C274.814 22.2722 279.236 24.2819 282.692 28.3012C285.908 32.0795 287.435 36.7419 287.435 42.2887ZM325.137 62.7071H318.545V35.938C318.545 32.9637 317.661 30.7129 315.892 29.0247C314.124 27.417 311.793 26.6131 308.818 26.6131C305.683 26.6935 302.709 27.6581 299.895 29.6678V62.7071H293.304V28.864C297.082 26.1308 300.538 24.2819 303.754 23.478C306.728 22.6741 309.381 22.2722 311.712 22.2722C313.24 22.2722 314.767 22.433 316.134 22.7545C318.706 23.3172 320.796 24.4427 322.404 26.0504C324.172 27.8189 325.137 29.9894 325.137 32.5618V62.7071Z" fill="#C9CED1"/>
<path d="M40.5657 2.33644C37.1894 2.33644 33.9739 2.65799 31.0799 3.14032C22.7196 4.58729 21.1923 7.7224 21.1923 13.4299V20.9059H40.9676V23.3979H13.7966C8.00875 23.3979 3.02474 26.8546 1.41699 33.4464C-0.431922 41.0028 -0.512309 45.6652 1.41699 53.5432C2.78357 59.4115 6.15984 63.5916 11.9477 63.5916H18.7807V54.5882C18.7807 48.0769 24.4078 42.289 31.1603 42.289H50.9356C56.402 42.289 60.8233 37.7873 60.8233 32.2406V13.4299C60.8233 8.04395 56.3216 4.02458 50.9356 3.14032C47.479 2.5776 43.9419 2.25606 40.5657 2.33644ZM29.8741 8.3655C31.8838 8.3655 33.5719 10.0536 33.5719 12.1437C33.5719 14.2338 31.8838 15.9219 29.8741 15.9219C27.7841 15.9219 26.1763 14.2338 26.1763 12.1437C26.1763 10.0536 27.8644 8.3655 29.8741 8.3655Z" fill="#C9CED1"/>
<path d="M63.2352 23.4786V32.2408C63.2352 39.0737 57.4473 44.7812 50.8555 44.7812H31.1606C25.7746 44.7812 21.2729 49.4437 21.2729 54.8297V73.6403C21.2729 79.0263 25.9354 82.1614 31.1606 83.6887C37.4308 85.5377 43.4599 85.8592 50.9359 83.6887C55.9199 82.2418 60.8235 79.3478 60.8235 73.6403V66.0839H41.0483V63.5919H70.7112C76.4991 63.5919 78.5892 59.5725 80.5989 53.5435C82.6889 47.3536 82.6085 41.405 80.5989 33.4466C79.1519 27.7391 76.4991 23.3982 70.7112 23.3982H63.2352V23.4786ZM52.1417 71.1483C54.2318 71.1483 55.8395 72.8364 55.8395 74.9265C55.8395 77.0166 54.1514 78.7047 52.1417 78.7047C50.132 78.7047 48.4439 77.0166 48.4439 74.9265C48.4439 72.8364 50.0516 71.1483 52.1417 71.1483Z" fill="#C9CED1"/>
<path d="M337.919 17.4494H339.044V10.2146H341.777V9.33032H335.186V10.2146H337.919V17.4494ZM342.822 17.4494H343.787V10.8577L345.957 17.4494H347.083L349.334 10.8577V17.4494H350.379V9.33032H348.932L346.52 16.2436L344.43 9.33032H342.822V17.4494Z" fill="#C9CED1"/>
</svg>
