<svg width="161" height="136" viewBox="0 0 161 136" fill="none" xmlns="http://www.w3.org/2000/svg">
<path fill-rule="evenodd" clip-rule="evenodd" d="M3.95871 34.0006C28.8389 92.5199 91.2087 107.733 149.978 99.4764C150.987 99.3365 151.925 100.04 152.065 101.05C152.204 102.06 151.501 102.997 150.491 103.137C90.0767 111.627 26.1337 95.6032 0.557403 35.444C0.157055 34.5076 0.595497 33.4231 1.53642 33.0216C2.47283 32.6212 3.55717 33.0597 3.95871 34.0006Z" fill="#0D0C22"/>
<path fill-rule="evenodd" clip-rule="evenodd" d="M149.131 101.462C146.109 100.274 142.3 98.8255 141.872 98.6485C130.287 93.8514 120.068 87.5142 110.42 79.4643C109.637 78.8119 109.532 77.6434 110.185 76.8596C110.837 76.0757 112.005 75.9713 112.789 76.6238C122.142 84.4329 132.051 90.5815 143.289 95.2334C143.944 95.505 152.51 98.7566 154.192 99.5442C154.884 99.864 155.176 100.26 155.236 100.36C155.574 100.878 155.579 101.355 155.511 101.72C155.431 102.131 155.133 102.779 154.357 103.272C153.541 103.785 151.599 104.431 151.122 104.633C143.93 107.709 135.635 110.515 128.503 114.665C121.702 118.622 115.952 123.807 113.495 131.817C113.196 132.792 112.159 133.339 111.183 133.041C110.208 132.743 109.66 131.705 109.959 130.73C112.708 121.776 119.042 115.892 126.642 111.47C133.732 107.346 141.935 104.505 149.131 101.462Z" fill="#0D0C22"/>
</svg>
