<svg width="32" height="23" viewBox="0 0 32 23" fill="none" xmlns="http://www.w3.org/2000/svg">
<path d="M31.3536 11.3536C31.5488 11.1583 31.5488 10.8417 31.3536 10.6464L28.1716 7.46447C27.9763 7.2692 27.6597 7.2692 27.4645 7.46447C27.2692 7.65973 27.2692 7.97631 27.4645 8.17157L30.2929 11L27.4645 13.8284C27.2692 14.0237 27.2692 14.3403 27.4645 14.5355C27.6597 14.7308 27.9763 14.7308 28.1716 14.5355L31.3536 11.3536ZM9 11.5H31V10.5H9V11.5Z" fill="#02AD53"/>
<mask id="path-2-inside-1_670_19208" fill="white">
<path d="M22.7655 9.18948C22.1864 6.36571 20.5679 3.86241 18.2306 2.17535C15.8933 0.488285 13.0077 -0.259504 10.1452 0.0800801C7.28275 0.419664 4.65219 1.82185 2.77451 4.00895C0.896833 6.19605 -0.091019 9.00855 0.00659587 11.8894C0.104211 14.7703 1.28017 17.5095 3.30159 19.5645C5.323 21.6195 8.04244 22.8404 10.9213 22.9854C13.8002 23.1305 16.6286 22.1891 18.8463 20.3477C21.0641 18.5063 22.5094 15.8992 22.8961 13.0427L22.2681 12.9577C21.9027 15.6567 20.537 18.1202 18.4415 19.8601C16.346 21.6001 13.6735 22.4896 10.9532 22.3525C8.23297 22.2155 5.66338 21.0618 3.75336 19.1201C1.84334 17.1784 0.732174 14.5901 0.639938 11.868C0.547703 9.14584 1.48112 6.48832 3.25533 4.42174C5.02953 2.35517 7.51514 1.03024 10.2199 0.709373C12.9246 0.388502 15.6512 1.09508 17.8597 2.68918C20.0682 4.28328 21.5975 6.64864 22.1447 9.3168L22.7655 9.18948Z"/>
</mask>
<path d="M22.7655 9.18948C22.1864 6.36571 20.5679 3.86241 18.2306 2.17535C15.8933 0.488285 13.0077 -0.259504 10.1452 0.0800801C7.28275 0.419664 4.65219 1.82185 2.77451 4.00895C0.896833 6.19605 -0.091019 9.00855 0.00659587 11.8894C0.104211 14.7703 1.28017 17.5095 3.30159 19.5645C5.323 21.6195 8.04244 22.8404 10.9213 22.9854C13.8002 23.1305 16.6286 22.1891 18.8463 20.3477C21.0641 18.5063 22.5094 15.8992 22.8961 13.0427L22.2681 12.9577C21.9027 15.6567 20.537 18.1202 18.4415 19.8601C16.346 21.6001 13.6735 22.4896 10.9532 22.3525C8.23297 22.2155 5.66338 21.0618 3.75336 19.1201C1.84334 17.1784 0.732174 14.5901 0.639938 11.868C0.547703 9.14584 1.48112 6.48832 3.25533 4.42174C5.02953 2.35517 7.51514 1.03024 10.2199 0.709373C12.9246 0.388502 15.6512 1.09508 17.8597 2.68918C20.0682 4.28328 21.5975 6.64864 22.1447 9.3168L22.7655 9.18948Z" stroke="#02AD53" stroke-width="2" mask="url(#path-2-inside-1_670_19208)"/>
</svg>
