<svg width="32" height="32" viewBox="0 0 32 32" fill="none" xmlns="http://www.w3.org/2000/svg">
<g clip-path="url(#clip0_671_25541)">
<path d="M27.2824 11.3621L25.6937 13.7517C26.4599 15.2799 26.835 16.9742 26.7854 18.683C26.7358 20.3917 26.263 22.0614 25.4095 23.5426H7.50702C6.3977 21.6181 5.93803 19.3874 6.19616 17.1812C6.45429 14.975 7.41649 12.9106 8.9401 11.2942C10.4637 9.67785 12.4676 8.59545 14.6548 8.20751C16.8419 7.81956 19.0958 8.14672 21.0824 9.14048L23.472 7.55173C21.0391 5.99168 18.1534 5.29261 15.2763 5.56636C12.3991 5.8401 9.69697 7.07084 7.60195 9.06171C5.50693 11.0526 4.14011 13.6885 3.72014 16.548C3.30016 19.4074 3.85128 22.325 5.28535 24.8342C5.51076 25.2247 5.83443 25.5493 6.22418 25.7759C6.61393 26.0025 7.05619 26.1232 7.50702 26.1259H25.3966C25.8518 26.1277 26.2994 26.0092 26.6941 25.7824C27.0888 25.5555 27.4165 25.2285 27.6441 24.8342C28.8342 22.7726 29.4315 20.4222 29.3699 18.0426C29.3084 15.6629 28.5904 13.3466 27.2954 11.3492L27.2824 11.3621Z" fill="#5A5A5A"/>
<path d="M14.6366 20.1971C14.8765 20.4373 15.1614 20.6279 15.475 20.7579C15.7886 20.8879 16.1248 20.9548 16.4643 20.9548C16.8038 20.9548 17.1399 20.8879 17.4535 20.7579C17.7671 20.6279 18.0521 20.4373 18.292 20.1971L25.6028 9.2309L14.6366 16.5417C14.3964 16.7817 14.2058 17.0666 14.0758 17.3802C13.9458 17.6938 13.8789 18.0299 13.8789 18.3694C13.8789 18.7089 13.9458 19.0451 14.0758 19.3587C14.2058 19.6723 14.3964 19.9572 14.6366 20.1971Z" fill="#5A5A5A"/>
</g>
<defs>
<clipPath id="clip0_671_25541">
<rect width="31" height="31" fill="white" transform="translate(0.958008 0.292572)"/>
</clipPath>
</defs>
</svg>
