<svg width="50" height="48" viewBox="0 0 50 48" fill="none" xmlns="http://www.w3.org/2000/svg">
<path d="M17.2727 48L12.9545 40.6857L4.77273 38.8571L5.56818 30.4L0 24L5.56818 17.6L4.77273 9.14286L12.9545 7.31429L17.2727 0L25 3.31429L32.7273 0L37.0455 7.31429L45.2273 9.14286L44.4318 17.6L50 24L44.4318 30.4L45.2273 38.8571L37.0455 40.6857L32.7273 48L25 44.6857L17.2727 48ZM19.2045 42.1714L25 39.6571L30.9091 42.1714L34.0909 36.6857L40.3409 35.2L39.7727 28.8L43.9773 24L39.7727 19.0857L40.3409 12.6857L34.0909 11.3143L30.7955 5.82857L25 8.34286L19.0909 5.82857L15.9091 11.3143L9.65909 12.6857L10.2273 19.0857L6.02273 24L10.2273 28.8L9.65909 35.3143L15.9091 36.6857L19.2045 42.1714ZM22.6136 32.1143L35.4545 19.2L32.2727 15.8857L22.6136 25.6L17.7273 20.8L14.5455 24L22.6136 32.1143Z" fill="white"/>
</svg>
