<svg width="32" height="32" viewBox="0 0 32 32" fill="none" xmlns="http://www.w3.org/2000/svg">
<g clip-path="url(#clip0_671_25553)">
<path d="M28.0827 16.5768C28.0827 9.48558 22.5802 4.66766 16.4577 4.66766C10.3998 4.66766 4.83268 9.38225 4.83268 16.6543C4.05768 17.0935 3.54102 17.9202 3.54102 18.876V21.4593C3.54102 22.8802 4.70352 24.0427 6.12435 24.0427H7.41602V16.1635C7.41602 11.1647 11.4589 7.12183 16.4577 7.12183C21.4564 7.12183 25.4993 11.1647 25.4993 16.1635V25.3343H15.166V27.9177H25.4993C26.9202 27.9177 28.0827 26.7552 28.0827 25.3343V23.7585C28.8448 23.3581 29.3744 22.5702 29.3744 21.6402V18.6693C29.3744 17.7652 28.8448 16.9772 28.0827 16.5768Z" fill="#5A5A5A"/>
<path d="M12.5827 18.876C13.2961 18.876 13.8743 18.2977 13.8743 17.5843C13.8743 16.871 13.2961 16.2927 12.5827 16.2927C11.8693 16.2927 11.291 16.871 11.291 17.5843C11.291 18.2977 11.8693 18.876 12.5827 18.876Z" fill="#5A5A5A"/>
<path d="M20.3327 18.876C21.0461 18.876 21.6243 18.2977 21.6243 17.5843C21.6243 16.871 21.0461 16.2927 20.3327 16.2927C19.6193 16.2927 19.041 16.871 19.041 17.5843C19.041 18.2977 19.6193 18.876 20.3327 18.876Z" fill="#5A5A5A"/>
<path d="M24.2079 15.0397C23.5879 11.3585 20.3845 8.54266 16.5224 8.54266C12.6087 8.54266 8.39787 11.7847 8.7337 16.8739C11.9241 15.5693 14.3266 12.7277 15.0112 9.266C16.7033 12.6631 20.1779 15.001 24.2079 15.0397Z" fill="#5A5A5A"/>
</g>
<defs>
<clipPath id="clip0_671_25553">
<rect width="31" height="31" fill="white" transform="translate(0.958008 0.792664)"/>
</clipPath>
</defs>
</svg>
