<svg width="48" height="55" viewBox="0 0 48 55" fill="none" xmlns="http://www.w3.org/2000/svg">
<path d="M16.1208 42.4978V37.7832H27.0354V33.2624H21.6104V28.6124H27.0354V25.3187H16.1208V20.6687H27.0354C28.5424 20.6687 29.834 21.1208 30.9104 22.0249C31.9868 22.9291 32.525 24.027 32.525 25.3187V27.3853C32.525 28.3756 32.1272 29.2152 31.3315 29.9041C30.5341 30.593 29.5757 30.9374 28.4562 30.9374C29.5757 30.9374 30.5341 31.2707 31.3315 31.9372C32.1272 32.6054 32.525 33.4346 32.525 34.4249V37.7832C32.525 39.0749 31.9868 40.184 30.9104 41.1106C29.834 42.0354 28.5424 42.4978 27.0354 42.4978H16.1208ZM16.25 5.74992V0.583252H31.75V5.74992H16.25ZM24 54.8333C20.8139 54.8333 17.8103 54.2201 14.9893 52.9939C12.1701 51.766 9.70556 50.0971 7.59583 47.9874C5.48611 45.8777 3.81728 43.4132 2.58933 40.5939C1.36311 37.7729 0.75 34.7694 0.75 31.5833C0.75 28.3971 1.36311 25.3936 2.58933 22.5726C3.81728 19.7533 5.48611 17.2888 7.59583 15.1791C9.70556 13.0694 12.1701 11.4014 14.9893 10.1752C17.8103 8.94722 20.8139 8.33325 24 8.33325C26.6694 8.33325 29.2313 8.76381 31.6854 9.62492C34.1396 10.486 36.4431 11.7346 38.5958 13.3708L42.2125 9.75409L45.8292 13.3708L42.2125 16.9874C43.8486 19.1402 45.0972 21.4437 45.9583 23.8978C46.8194 26.352 47.25 28.9138 47.25 31.5833C47.25 34.7694 46.6369 37.7729 45.4107 40.5939C44.1827 43.4132 42.5139 45.8777 40.4042 47.9874C38.2944 50.0971 35.8299 51.766 33.0107 52.9939C30.1897 54.2201 27.1861 54.8333 24 54.8333ZM24 49.6666C28.9944 49.6666 33.2569 47.9013 36.7875 44.3708C40.3181 40.8402 42.0833 36.5777 42.0833 31.5833C42.0833 26.5888 40.3181 22.3263 36.7875 18.7958C33.2569 15.2652 28.9944 13.4999 24 13.4999C19.0056 13.4999 14.7431 15.2652 11.2125 18.7958C7.68194 22.3263 5.91667 26.5888 5.91667 31.5833C5.91667 36.5777 7.68194 40.8402 11.2125 44.3708C14.7431 47.9013 19.0056 49.6666 24 49.6666Z" fill="white"/>
</svg>
